<svg version="1.1" id="Layer_1" xmlns="http://www.w3.org/2000/svg" xmlns:xlink="http://www.w3.org/1999/xlink" x="0px" y="0px"
	 width="100%" viewBox="0 0 300 300" enable-background="new 0 0 300 300" xml:space="preserve">
<path fill="#FFFFFF" opacity="1.000000" stroke="none" 
	d="
M165.000000,1.000001 
	C210.298630,1.000000 255.597275,1.000000 300.947937,1.000000 
	C300.947937,100.888748 300.947937,200.777542 300.947937,301.000000 
	C255.979660,301.000000 210.958481,301.000000 165.670959,300.634644 
	C172.350174,299.176880 179.423508,298.596527 186.218582,296.900940 
	C211.965729,290.476318 234.564682,278.264771 253.813293,259.784821 
	C269.096222,245.112228 280.974701,228.208252 289.041473,208.665039 
	C294.804169,194.703812 299.070618,180.137207 299.736237,165.105057 
	C300.325226,151.803772 299.222473,138.347656 297.869934,125.061378 
	C296.316589,109.802910 290.819489,95.476997 283.846039,81.973862 
	C273.293152,61.539497 258.590546,44.361389 240.072922,30.572544 
	C222.233337,17.288593 202.530884,8.164075 180.619644,3.980772 
	C175.413177,2.986750 170.206558,1.993569 165.000000,1.000001 
z"/>
<path fill="#458BCA" opacity="1.000000" stroke="none" 
	d="
M164.531342,1.000001 
	C170.206558,1.993569 175.413177,2.986750 180.619644,3.980772 
	C202.530884,8.164075 222.233337,17.288593 240.072922,30.572544 
	C258.590546,44.361389 273.293152,61.539497 283.846039,81.973862 
	C290.819489,95.476997 296.316589,109.802910 297.869934,125.061378 
	C299.222473,138.347656 300.325226,151.803772 299.736237,165.105057 
	C299.070618,180.137207 294.804169,194.703812 289.041473,208.665039 
	C280.974701,228.208252 269.096222,245.112228 253.813293,259.784821 
	C234.564682,278.264771 211.965729,290.476318 186.218582,296.900940 
	C179.423508,298.596527 172.350174,299.176880 165.202301,300.634644 
	C155.312439,301.000000 145.624878,301.000000 135.266876,300.634979 
	C131.179031,299.845612 127.739494,299.551300 124.348015,298.974457 
	C109.438210,296.438416 95.156578,291.742767 81.768349,284.839111 
	C62.811024,275.063782 46.831245,261.469116 33.377048,244.895264 
	C20.522432,229.060028 11.308821,211.349686 6.041957,191.661728 
	C4.043873,184.192734 2.662481,176.558777 1.000001,169.000000 
	C1.000000,157.312439 1.000000,145.624878 1.362082,133.271896 
	C2.548530,127.269791 2.993754,121.841385 4.258944,116.611343 
	C12.325103,83.267403 29.803705,55.843319 56.345707,34.088463 
	C73.855904,19.736422 93.585770,10.047132 115.607124,4.990572 
	C122.037796,3.513956 128.533890,2.322281 135.000000,1.000000 
	C144.687561,1.000000 154.375122,1.000000 164.531342,1.000001 
M8.997208,126.478004 
	C8.667392,128.078308 8.062375,129.676743 8.051474,131.279221 
	C7.967339,143.647690 7.518904,156.040207 8.117423,168.379944 
	C8.830786,183.087463 13.664780,196.885849 19.680552,210.206467 
	C28.981041,230.800385 42.467167,248.206085 59.987339,262.533356 
	C72.283051,272.588257 85.793045,280.531250 100.670418,285.958466 
	C121.303719,293.485474 142.480621,296.522034 164.555771,294.166016 
	C181.056442,292.404968 196.633713,288.098450 211.536133,281.098175 
	C230.575729,272.154480 246.681030,259.472900 260.297058,243.360428 
	C270.915405,230.795227 279.162933,216.917358 284.883820,201.646667 
	C292.957306,180.096130 295.885132,157.835709 293.115082,134.790649 
	C291.219788,119.022804 287.088409,104.025375 280.300507,89.746140 
	C270.313629,68.737427 256.068817,51.267841 237.612030,36.935959 
	C214.199402,18.755840 187.674393,8.987430 158.431335,7.278311 
	C146.561310,6.584564 134.391418,8.230927 122.567078,10.120784 
	C97.164062,14.180885 75.058380,25.925188 55.973595,42.745937 
	C30.916245,64.830719 15.222871,92.628838 8.997208,126.478004 
z"/>
<path fill="#FFFFFF" opacity="1.000000" stroke="none" 
	d="
M134.531342,1.000000 
	C128.533890,2.322281 122.037796,3.513956 115.607124,4.990572 
	C93.585770,10.047132 73.855904,19.736422 56.345707,34.088463 
	C29.803705,55.843319 12.325103,83.267403 4.258944,116.611343 
	C2.993754,121.841385 2.548530,127.269791 1.362082,132.803238 
	C1.000000,89.072464 1.000000,45.144932 1.000000,1.000000 
	C45.353992,1.000000 89.708336,1.000000 134.531342,1.000000 
z"/>
<path fill="#FFFFFF" opacity="1.000000" stroke="none" 
	d="
M1.000001,169.468658 
	C2.662481,176.558777 4.043873,184.192734 6.041957,191.661728 
	C11.308821,211.349686 20.522432,229.060028 33.377048,244.895264 
	C46.831245,261.469116 62.811024,275.063782 81.768349,284.839111 
	C95.156578,291.742767 109.438210,296.438416 124.348015,298.974457 
	C127.739494,299.551300 131.179031,299.845612 134.798218,300.634979 
	C90.406898,301.000000 45.813793,301.000000 1.000000,301.000000 
	C1.000000,257.312683 1.000000,213.625000 1.000001,169.468658 
z"/>
<path fill="#FFFFFF" opacity="1.000000" stroke="none" 
	d="
M8.999593,126.036819 
	C15.222871,92.628838 30.916245,64.830719 55.973595,42.745937 
	C75.058380,25.925188 97.164062,14.180885 122.567078,10.120784 
	C134.391418,8.230927 146.561310,6.584564 158.431335,7.278311 
	C187.674393,8.987430 214.199402,18.755840 237.612030,36.935959 
	C256.068817,51.267841 270.313629,68.737427 280.300507,89.746140 
	C287.088409,104.025375 291.219788,119.022804 293.115082,134.790649 
	C295.885132,157.835709 292.957306,180.096130 284.883820,201.646667 
	C279.162933,216.917358 270.915405,230.795227 260.297058,243.360428 
	C246.681030,259.472900 230.575729,272.154480 211.536133,281.098175 
	C196.633713,288.098450 181.056442,292.404968 164.555771,294.166016 
	C142.480621,296.522034 121.303719,293.485474 100.670418,285.958466 
	C85.793045,280.531250 72.283051,272.588257 59.987339,262.533356 
	C42.467167,248.206085 28.981041,230.800385 19.680552,210.206467 
	C13.664780,196.885849 8.830786,183.087463 8.117423,168.379944 
	C7.518904,156.040207 7.967339,143.647690 8.051474,131.279221 
	C8.062375,129.676743 8.667392,128.078308 8.999593,126.036819 
M45.514126,228.385956 
	C46.902790,226.196716 48.427788,224.078537 49.621532,221.787720 
	C50.202518,220.672821 50.797367,218.694489 50.261803,218.068100 
	C49.412933,217.075195 47.491398,216.239304 46.252144,216.485718 
	C42.820103,217.168182 39.506084,218.444138 36.145420,219.485504 
	C35.654724,220.047623 35.164028,220.609726 34.673328,221.171844 
	C35.923458,221.715759 37.275715,222.105194 38.395885,222.845703 
	C39.591499,223.636063 41.652809,225.084732 41.472145,225.684677 
	C39.671768,231.663193 43.731472,229.053787 45.988773,229.722839 
	C46.586357,232.217438 46.668892,235.052521 47.998215,237.063385 
	C48.665592,238.072891 51.963863,238.327072 53.433910,237.611420 
	C56.248280,236.241302 58.606522,233.934265 61.350681,231.867950 
	C60.033241,230.642532 59.094833,229.769684 58.202847,228.940002 
	C55.573437,230.788635 53.201283,232.456390 50.829132,234.124161 
	C50.418312,233.734436 50.007496,233.344711 49.596676,232.955002 
	C51.749466,230.609238 53.902252,228.263489 56.184597,225.776566 
	C55.068798,224.718750 54.145130,223.843079 53.245815,222.990509 
	C50.679043,225.132965 48.333691,227.090591 45.514126,228.385956 
M249.214310,238.687515 
	C244.887863,237.680298 240.510529,236.721191 242.074081,230.198257 
	C238.761185,231.934998 237.354858,233.813171 238.704254,237.252167 
	C238.704254,237.252167 238.376968,237.627823 237.831940,237.225815 
	C234.669830,234.486755 234.233475,237.603729 233.585983,238.383362 
	C236.707657,241.742325 239.539825,244.789780 242.157532,247.606476 
	C243.406738,246.703308 244.709000,245.761810 245.561890,245.145172 
	C244.243576,244.094757 243.300003,243.342926 242.356430,242.591110 
	C242.533371,241.952774 242.710297,241.314423 242.887238,240.676086 
	C246.577194,244.180023 248.774368,242.491852 251.142410,239.235153 
	C252.017456,237.964752 253.806931,236.505768 253.591309,235.460297 
	C253.009232,232.638214 253.682922,231.707184 256.500244,231.560577 
	C257.629761,231.501816 258.704987,230.399963 259.804962,229.772888 
	C255.527222,227.114349 252.088776,225.816147 248.551712,224.897842 
	C247.464172,224.615479 245.564774,224.987396 245.019775,225.756256 
	C244.428360,226.590607 244.616730,228.400314 245.106476,229.498734 
	C246.541016,232.716202 248.294495,235.791473 249.214310,238.687515 
M68.747849,243.704239 
	C68.747849,243.704239 68.372261,243.376923 68.772346,242.834167 
	C71.668480,239.393646 68.106148,239.423584 66.653252,238.443497 
	C63.849560,241.638947 61.147732,244.718277 58.313351,247.948685 
	C59.643764,249.078552 60.852135,250.104782 62.014713,251.092117 
	C63.017406,250.041473 63.754894,249.268723 64.870537,248.099716 
	C64.458809,254.177872 64.458809,254.177872 67.827705,255.292419 
	C68.896805,250.868576 69.193748,245.648346 75.831772,247.610504 
	C73.537628,250.768097 71.243492,253.925690 68.780006,257.316345 
	C71.833282,259.514771 74.711540,261.587158 77.086426,263.297119 
	C79.845634,259.572906 82.589676,255.869202 85.331406,252.162369 
	C82.218216,250.448639 79.105026,248.734924 75.805908,246.368179 
	C74.003868,244.301071 72.286964,241.983002 68.747849,243.704239 
M98.406090,271.715271 
	C98.862953,272.800293 99.319809,273.885345 99.776672,274.970367 
	C103.095711,273.531250 105.691963,273.662140 106.856621,277.830200 
	C106.971825,278.242493 108.802704,278.175354 110.000160,278.355194 
	C110.000160,275.223724 109.608971,272.333221 110.092041,269.597046 
	C110.812881,265.514069 109.478577,263.599548 106.490211,263.618134 
	C103.237831,266.434143 100.601273,268.716980 97.954849,270.233734 
	C95.969650,269.220642 93.984459,268.207550 91.999260,267.194427 
	C92.148148,266.928955 92.297035,266.663483 92.445923,266.398010 
	C93.734230,266.932343 95.022537,267.466675 95.790840,267.785339 
	C98.223709,265.654816 100.242340,263.887054 102.657707,261.771851 
	C98.592552,259.836548 95.261871,258.250916 92.053879,256.723694 
	C89.922775,260.925781 88.034477,264.649139 86.120613,268.422882 
	C89.368164,270.164948 92.592361,271.894440 95.790497,273.609985 
	C96.615135,272.625336 97.321976,271.781342 98.406090,271.715271 
M270.782227,182.622513 
	C272.250702,182.748291 273.717926,182.891479 275.187897,182.996262 
	C278.340912,183.221069 280.521393,182.412399 281.085480,178.716614 
	C281.567444,175.558838 281.477142,172.356491 278.347229,171.386520 
	C275.460876,170.492035 271.959656,169.911591 269.325012,173.198013 
	C266.385101,176.865250 269.652161,179.766357 269.314545,182.987762 
	C268.026459,183.741379 266.738403,184.494980 265.450317,185.248581 
	C265.668488,185.705322 265.886627,186.162064 266.104767,186.618820 
	C267.204559,186.845200 268.304352,187.071564 268.672943,187.147446 
	C266.746368,188.930099 264.699921,190.823700 262.441010,192.913864 
	C265.391907,194.307602 267.218781,195.170456 268.221161,196.006729 
	C260.953430,196.272736 258.962860,199.026871 260.389130,205.300095 
	C257.522675,208.604980 255.122467,211.372299 252.370621,214.545059 
	C255.696487,216.436279 258.002747,217.985977 260.507385,219.082565 
	C262.007324,219.739273 263.817505,219.687286 265.488251,219.953827 
	C265.005096,218.370743 264.521973,216.787643 263.799927,214.421814 
	C264.033997,213.384979 264.508484,211.283081 264.990295,209.148727 
	C271.426849,208.806000 273.471191,206.914902 272.965057,201.465363 
	C272.823364,199.940002 272.306458,198.449493 272.693329,197.009018 
	C276.838989,198.903824 276.696228,196.119629 276.833130,193.943100 
	C274.979889,193.339920 273.480865,192.852020 270.907074,192.014297 
	C273.431946,191.089157 274.786102,190.674545 276.067139,190.097641 
	C277.082092,189.640549 278.007416,188.984421 278.972534,188.416656 
	C278.178101,187.367920 277.598358,185.905563 276.543701,185.358231 
	C274.472961,184.283615 272.138031,183.718140 270.782227,182.622513 
M68.291595,58.255638 
	C68.291595,58.255638 67.922287,57.923161 67.982185,57.195480 
	C66.968254,55.499500 65.954323,53.803520 64.802582,51.877029 
	C65.148689,51.585541 66.085976,50.796169 67.215401,49.844971 
	C65.844849,48.338326 64.662331,47.038395 64.119911,46.442120 
	C59.592346,50.262753 55.487209,53.726913 51.698738,56.923851 
	C56.013329,61.774990 59.617737,65.827629 64.068275,70.831619 
	C67.500877,66.569664 70.879517,62.374718 74.548645,57.819096 
	C74.047668,57.340881 72.891022,56.236786 71.734367,55.132690 
	C72.134300,55.697014 72.534233,56.261333 72.934166,56.825657 
	C71.492783,57.429489 70.051399,58.033321 68.291595,58.255638 
M240.495499,85.963066 
	C234.053345,78.873795 228.425827,70.758820 221.022888,64.879257 
	C194.188202,43.566662 163.615952,35.509949 129.666321,41.975216 
	C93.671989,48.829880 67.673256,69.247581 51.001827,101.479790 
	C42.145149,118.603104 38.741215,137.009750 39.807716,156.457672 
	C40.472507,168.580338 42.718845,180.105179 46.965935,191.385803 
	C57.064754,218.209091 75.658165,237.576385 100.597916,250.678589 
	C122.233398,262.044861 145.801331,264.746246 169.689255,260.784637 
	C199.221527,255.886948 223.102844,240.470734 240.561966,216.478821 
	C260.039093,189.713806 265.753540,159.372894 258.944275,126.918961 
	C255.860580,112.221504 250.230499,98.522400 240.495499,85.963066 
M262.394012,75.134521 
	C260.419128,75.994621 258.444244,76.854721 256.469360,77.714821 
	C256.032196,77.213440 255.595032,76.712051 255.157867,76.210663 
	C256.560822,74.518349 257.963776,72.826027 259.366699,71.133705 
	C259.838104,71.482254 260.309479,71.830803 260.780884,72.179352 
	C259.333862,70.231178 257.886871,68.283005 256.658203,66.628761 
	C254.590836,67.509125 252.613266,68.351250 250.635681,69.193382 
	C250.443069,68.881996 250.250458,68.570610 250.057846,68.259224 
	C251.291672,66.833916 252.525482,65.408600 253.990356,63.716362 
	C253.033310,62.302967 251.955414,60.711090 250.716782,58.881828 
	C247.077362,63.287899 243.642090,67.339584 240.386246,71.530647 
	C239.999817,72.028061 240.351089,73.431877 240.785645,74.162659 
	C241.628799,75.580551 242.774277,76.818665 243.136948,77.285263 
	C246.264267,76.241737 248.318237,75.556366 250.372208,74.870995 
	C250.526047,75.169441 250.679886,75.467888 250.833725,75.766335 
	C249.284912,77.236588 247.736084,78.706841 245.899124,80.450623 
	C247.297882,82.219826 248.781311,84.096138 249.885590,85.492867 
	C254.299255,83.823364 258.064178,82.320351 261.885223,80.977058 
	C265.396606,79.742645 266.142090,78.089729 262.394012,75.134521 
M31.825989,96.624557 
	C26.783089,96.782990 23.830622,99.276398 23.310638,104.257950 
	C28.284853,106.458717 33.319149,108.686066 38.539803,110.995865 
	C39.089226,109.176224 39.595398,107.499817 40.122971,105.752541 
	C37.423195,104.603569 34.941311,103.547325 31.597181,102.124130 
	C35.763786,101.329132 39.120049,100.688751 43.026081,99.943474 
	C43.562904,98.747726 44.413731,96.852554 45.189579,95.124382 
	C40.001350,92.814552 35.224747,90.687988 30.018396,88.370087 
	C29.368267,89.643967 28.516830,91.312294 27.786394,92.743530 
	C29.596811,94.080055 30.953005,95.081253 31.825989,96.624557 
M80.441437,55.039627 
	C81.213371,54.200230 81.985313,53.360832 82.383141,52.928238 
	C81.253471,51.313087 80.280647,49.922180 79.307823,48.531273 
	C83.725136,49.293457 87.997292,53.301678 90.967354,46.718845 
	C88.917137,45.778156 87.034576,44.914391 85.152016,44.050629 
	C85.493980,43.710941 85.835953,43.371258 86.177925,43.031570 
	C85.245209,40.995861 84.812607,37.966511 83.250900,37.180473 
	C81.374634,36.236103 78.252312,36.566681 76.184044,37.493477 
	C73.278030,38.795673 70.845680,41.154911 68.472130,42.872894 
	C71.685814,47.652550 74.688423,52.118267 77.686752,56.577621 
	C78.457283,56.218315 79.203484,55.870358 80.441437,55.039627 
M213.924789,34.171444 
	C211.395325,38.049156 208.865845,41.926865 206.158478,46.077263 
	C208.433090,47.160614 210.418777,48.106361 212.492401,49.093994 
	C213.783768,43.044765 214.231552,42.900692 219.178101,46.891144 
	C218.175613,48.380100 217.153824,49.897720 215.899338,51.760925 
	C217.676804,52.928711 219.397537,54.059227 220.915268,55.056370 
	C223.941483,50.206318 226.739075,45.722664 229.729523,40.929947 
	C228.057724,39.716049 226.315445,38.450970 224.453049,37.098663 
	C224.013474,38.434959 223.825317,39.235897 223.487534,39.967773 
	C223.165085,40.666431 222.686783,41.293159 222.288879,41.932381 
	C216.882935,39.369053 216.694641,38.599876 220.602554,33.769863 
	C218.405518,33.653725 216.208466,33.537586 213.924789,34.171444 
M176.215576,33.999008 
	C178.467712,32.151440 181.794113,30.710051 182.687012,28.348545 
	C183.694275,25.684570 184.029755,21.849764 180.321701,19.621582 
	C177.143997,17.712076 174.138412,15.914390 170.327606,17.892469 
	C166.338074,19.963314 163.871674,24.308504 165.146729,28.077780 
	C166.765869,32.864178 170.805634,34.022449 176.215576,33.999008 
M271.049591,89.234146 
	C270.450714,88.149887 269.851837,87.065620 269.674194,86.744011 
	C263.382996,87.446770 257.752960,88.075661 251.824997,88.737846 
	C252.829712,90.599915 254.125717,93.621780 254.455231,93.519829 
	C259.661743,91.908966 258.320892,97.360718 260.953583,98.579910 
	C259.676361,99.587112 258.831421,100.253433 257.889069,100.996590 
	C258.942749,102.823959 259.875031,104.440727 260.953339,106.310783 
	C264.780273,101.859535 268.389862,97.861877 271.693665,93.625702 
	C272.261414,92.897736 271.527222,91.154366 271.049591,89.234146 
M237.441925,49.043472 
	C232.749451,51.521656 228.056961,53.999836 222.975723,56.683331 
	C224.315155,57.944424 225.395386,58.961475 226.435654,59.940907 
	C229.325302,58.532421 233.246613,60.261108 233.925369,62.902878 
	C234.549744,65.332932 235.510025,67.676682 236.322342,70.058449 
	C236.730850,69.862991 237.139374,69.667534 237.547882,69.472076 
	C239.554779,63.848190 241.561676,58.224304 243.859390,51.785454 
	C242.184158,50.864120 240.086136,49.710266 237.441925,49.043472 
M100.584808,25.392708 
	C97.536499,26.547657 94.053413,27.143606 91.594398,29.056208 
	C89.984077,30.308701 89.484314,33.440102 89.313858,35.789940 
	C89.268684,36.412701 92.236084,37.731548 93.897148,37.882118 
	C96.074570,38.079498 98.328262,37.435390 100.549149,37.153214 
	C100.649284,37.562012 100.749420,37.970810 100.849564,38.379612 
	C98.005005,39.134399 95.160446,39.889191 91.142807,40.955254 
	C92.441841,42.417393 93.638260,44.697514 94.516754,44.580986 
	C97.357613,44.204147 100.590858,43.566406 102.694397,41.838181 
	C104.473038,40.376881 105.599014,37.250698 105.570107,34.878944 
	C105.558182,33.900517 101.849884,32.583374 99.676727,32.145958 
	C98.151886,31.839029 96.379921,32.759888 94.718307,33.132454 
	C94.623947,32.820793 94.529579,32.509132 94.435211,32.197468 
	C96.586456,31.466230 98.737709,30.734993 100.922714,29.992281 
	C100.922714,28.713207 100.922714,27.388357 100.584808,25.392708 
M21.060905,110.905243 
	C20.504772,112.834053 19.948641,114.762856 19.496193,116.332054 
	C23.535959,117.498894 27.205608,118.558830 31.198524,119.712143 
	C27.156017,127.710754 22.517363,120.256325 18.185946,121.582344 
	C17.809093,123.364677 17.359339,125.491814 16.984097,127.266541 
	C20.683517,127.910545 23.789650,128.694672 26.938063,128.943237 
	C31.865818,129.332291 34.465500,127.270950 34.990860,123.057686 
	C35.793514,116.620598 34.424282,114.358200 29.228262,112.972137 
	C26.609140,112.273483 24.087400,111.209785 21.060905,110.905243 
M47.994999,68.492943 
	C48.568893,69.511322 49.142784,70.529709 50.265244,72.521523 
	C47.008743,71.072731 44.848297,70.111565 42.210068,68.937836 
	C41.109528,70.648178 39.950329,72.449684 38.943325,74.014664 
	C44.512344,76.264297 49.514965,78.285141 54.861549,80.444923 
	C56.006336,78.935623 57.545818,76.905937 58.596718,75.520409 
	C55.271503,70.357742 52.256439,65.676613 49.073685,60.735130 
	C46.497578,63.008057 44.501129,64.954056 47.994999,68.492943 
M197.226654,28.084118 
	C198.622253,28.728588 200.017868,29.373056 201.523865,30.068504 
	C202.069305,28.227200 202.469284,26.877005 202.916641,25.366825 
	C197.696060,23.743536 192.687531,22.186186 188.429245,20.862116 
	C186.530823,26.602203 184.890213,31.562752 183.206299,36.654243 
	C184.964157,37.128304 186.642548,37.580933 188.255478,38.015911 
	C189.169647,36.096664 189.959366,34.438721 190.818695,32.634632 
	C193.014160,33.571869 194.635269,34.263908 196.547455,35.080212 
	C197.120178,33.501804 197.636047,32.080040 198.148453,30.667839 
	C195.777496,29.766878 193.902573,29.054411 192.027649,28.341946 
	C192.136124,27.935135 192.244614,27.528324 192.353104,27.121515 
	C193.718903,27.413206 195.084717,27.704897 197.226654,28.084118 
M151.016586,18.488081 
	C151.696198,17.538288 152.375793,16.588493 153.410736,15.142086 
	C150.212952,15.142086 147.909668,15.142086 145.607117,15.142086 
	C145.086426,16.733290 144.606003,18.201416 143.816116,20.615210 
	C141.718658,14.595325 137.963943,15.825898 134.213348,16.435345 
	C136.599991,21.850849 143.733063,24.463404 141.548538,31.704943 
	C143.609589,31.704943 145.693039,31.704943 148.180603,31.704943 
	C145.189514,26.521177 148.832794,23.000872 151.016586,18.488081 
M118.750908,24.054688 
	C119.642632,23.721104 120.534355,23.387518 121.737694,22.937359 
	C122.564339,27.010601 123.341064,30.837872 124.168503,34.915043 
	C126.116188,34.441246 127.949646,33.995235 129.756882,33.555603 
	C128.966553,29.788240 128.208893,26.176544 127.374496,22.199139 
	C129.255295,21.909454 131.017624,21.638014 132.848572,21.356007 
	C132.411087,19.659801 131.975708,17.971743 131.533096,16.255650 
	C126.391937,17.346033 121.345787,18.416265 115.220322,19.715410 
	C116.311371,21.508709 117.186691,22.947437 118.750908,24.054688 
M33.148487,214.661926 
	C33.636303,215.776245 34.124115,216.890564 34.571781,217.913162 
	C38.577763,215.844421 42.254524,213.945694 47.048676,211.469925 
	C44.699654,209.666779 42.821548,208.225128 41.783398,207.428223 
	C41.539577,205.271591 41.300121,203.153580 40.995941,200.463058 
	C36.330524,202.851501 32.634941,204.743423 27.781200,207.228271 
	C31.022116,209.531372 33.450535,211.257080 35.835552,212.951950 
	C35.589725,213.083206 34.614456,213.603928 33.148487,214.661926 
M202.756226,259.824738 
	C203.084274,261.021545 203.412338,262.218353 203.502533,262.547424 
	C200.723953,262.547424 197.941711,262.547424 194.751236,262.547424 
	C196.373993,266.221649 197.185699,268.721893 198.534439,270.887756 
	C199.483810,272.412262 201.163300,273.482117 202.516800,274.754974 
	C202.397995,272.949707 202.263657,271.145203 202.176239,269.338409 
	C202.162247,269.049194 202.358459,268.749847 202.451752,268.472290 
	C205.592804,268.324493 207.923035,274.599884 211.416534,269.940247 
	C209.651932,265.928589 207.969101,262.102844 206.205383,258.093201 
	C205.314636,258.458069 204.276520,258.883331 202.756226,259.824738 
M130.672470,273.217957 
	C128.652740,271.817688 126.574371,269.247650 124.629730,269.345123 
	C122.673759,269.443176 120.093437,271.860901 119.199715,273.885803 
	C118.429878,275.629974 118.892265,279.364166 120.163208,280.228577 
	C122.134819,281.569427 125.440323,281.984314 127.847702,281.406342 
	C131.453857,280.540558 131.116913,277.006165 130.672470,273.217957 
M179.018280,266.706512 
	C179.018280,271.732117 179.018280,276.757721 179.018280,281.783325 
	C179.498978,282.497986 179.979675,283.212677 180.460373,283.927338 
	C182.051620,274.890900 188.043701,279.996735 192.261826,278.513611 
	C189.371155,274.219543 186.355148,270.695984 184.460510,266.647644 
	C182.673843,262.829956 181.361511,262.847931 179.018280,266.706512 
M151.792282,284.479889 
	C150.948792,281.909821 150.105316,279.339722 149.202438,276.588684 
	C150.250977,275.320068 151.446167,273.874023 152.641357,272.427979 
	C152.358505,272.033508 152.075653,271.639008 151.792801,271.244537 
	C149.639923,272.505005 147.487045,273.765472 146.066116,274.597412 
	C144.500443,273.592865 142.840515,272.527832 141.144669,271.439758 
	C140.819656,276.642883 140.564178,280.732605 140.305969,284.866028 
	C141.959503,284.866028 143.265717,284.866028 144.534256,284.866028 
	C144.741440,283.331329 144.938263,281.873352 145.246658,279.588867 
	C146.902786,282.689148 147.001801,286.256348 151.792282,284.479889 
M19.936947,175.309708 
	C19.666065,183.668625 22.112980,184.724411 33.863842,181.263535 
	C32.530891,173.762329 25.472696,182.470123 23.127287,176.942581 
	C25.990942,176.116165 28.872261,175.284653 32.138386,174.342102 
	C31.860798,173.016678 31.581385,171.682541 31.155748,169.650208 
	C27.057871,171.472733 23.583792,173.017822 19.936947,175.309708 
M212.055313,265.980011 
	C212.790115,266.933167 213.524933,267.886292 214.259750,268.839447 
	C214.881653,267.880188 215.374527,266.794678 216.158218,265.993683 
	C217.132004,264.998444 219.252655,263.414246 219.326324,263.495270 
	C222.700195,267.205841 222.558640,262.646851 224.474701,261.857971 
	C221.128632,259.302216 218.359024,257.013245 215.387741,255.025787 
	C214.525589,254.449097 212.800476,254.270462 211.995407,254.764359 
	C211.265915,255.211868 210.921341,256.844421 210.987717,257.918640 
	C211.138000,260.350983 211.646179,262.761169 212.055313,265.980011 
M25.486263,192.000229 
	C25.230751,194.151199 24.975239,196.302155 24.606918,199.402771 
	C28.430513,196.562073 31.418737,194.560043 34.114582,192.221008 
	C35.059017,191.401550 36.012897,189.465439 35.653595,188.556793 
	C35.206154,187.425217 33.460289,186.237427 32.176399,186.115768 
	C28.681168,185.784576 25.133959,186.001984 20.563124,186.001984 
	C22.388233,188.164108 23.744715,189.771072 25.486263,192.000229 
M162.887863,275.503906 
	C162.379410,274.035248 161.870956,272.566589 161.368958,271.116577 
	C159.587891,271.577362 158.036911,271.978577 156.422455,272.396271 
	C155.317169,276.391266 154.205475,280.409424 152.627472,286.113037 
	C157.305054,282.350433 161.410522,281.301422 165.872543,284.522461 
	C166.030151,284.081665 166.187759,283.640839 166.345383,283.200043 
	C165.252640,280.890381 164.159912,278.580750 162.887863,275.503906 
M34.068043,80.717773 
	C33.722675,81.611412 33.377308,82.505043 33.228546,82.889961 
	C38.141914,85.799980 42.817757,88.569313 47.628273,91.418419 
	C48.573250,89.820724 49.787151,87.768349 50.658817,86.294609 
	C45.817688,83.374512 41.202038,80.590416 36.364864,77.672699 
	C36.034863,78.088432 35.245777,79.082527 34.068043,80.717773 
M108.009300,29.598625 
	C108.910690,32.667236 109.812088,35.735847 110.774765,39.013092 
	C112.888519,38.173317 114.939209,37.358597 116.627525,36.687847 
	C114.731667,31.237720 112.985603,26.218225 111.120697,20.857079 
	C109.259247,21.491268 107.319878,22.152000 105.324226,22.831911 
	C106.291229,25.055969 107.108032,26.934591 108.009300,29.598625 
M281.090179,120.762482 
	C276.168213,122.000717 271.246277,123.238953 266.118286,124.529022 
	C266.556610,126.109612 267.184326,128.373123 267.583588,129.812851 
	C273.284851,128.768982 278.410706,127.830467 284.127747,126.783699 
	C283.429199,124.911018 282.549225,122.552048 281.090179,120.762482 
M265.878448,113.039452 
	C270.221741,111.434570 274.565033,109.829697 279.387848,108.047638 
	C278.416748,106.050842 277.512451,104.191376 276.942474,103.019402 
	C271.737061,104.830742 266.782257,106.554886 261.325653,108.453636 
	C262.022705,110.117920 262.860046,112.117119 263.697388,114.116325 
	C264.210327,113.874817 264.723297,113.633308 265.878448,113.039452 
M232.494736,252.995789 
	C230.387329,250.341003 228.279922,247.686218 225.835632,244.607040 
	C224.595932,245.707642 223.555664,246.631195 222.566330,247.509521 
	C225.720490,251.457214 228.332764,254.726715 231.984695,259.297424 
	C232.470001,256.528381 232.734573,255.018784 232.494736,252.995789 
M190.569778,264.999390 
	C190.203064,265.638519 189.384430,266.431305 189.541214,266.892456 
	C190.788071,270.559570 192.220123,274.163757 193.662979,277.965393 
	C195.096970,277.442688 196.525970,276.921783 197.487564,276.571289 
	C196.242172,272.708649 195.205368,269.176788 193.892212,265.750793 
	C193.688248,265.218658 192.221207,265.170624 190.569778,264.999390 
M274.509338,115.038200 
	C273.172089,119.039627 275.630463,119.400612 278.401703,118.717995 
	C280.475769,118.207115 282.368347,116.959587 284.401794,116.012070 
	C281.929504,112.808304 278.935730,111.391609 274.509338,115.038200 
M172.353683,271.199982 
	C172.871719,273.220123 173.389755,275.240295 173.907791,277.260437 
	C174.775192,277.082855 175.642609,276.905243 176.510010,276.727631 
	C176.219681,274.212708 175.929337,271.697784 175.561401,268.510773 
	C174.336288,269.494965 173.609634,270.078674 172.353683,271.199982 
z"/>
<path fill="#458BCA" opacity="1.000000" stroke="none" 
	d="
M240.746857,86.226013 
	C250.230499,98.522400 255.860580,112.221504 258.944275,126.918961 
	C265.753540,159.372894 260.039093,189.713806 240.561966,216.478821 
	C223.102844,240.470734 199.221527,255.886948 169.689255,260.784637 
	C145.801331,264.746246 122.233398,262.044861 100.597916,250.678589 
	C75.658165,237.576385 57.064754,218.209091 46.965935,191.385803 
	C42.718845,180.105179 40.472507,168.580338 39.807716,156.457672 
	C38.741215,137.009750 42.145149,118.603104 51.001827,101.479790 
	C67.673256,69.247581 93.671989,48.829880 129.666321,41.975216 
	C163.615952,35.509949 194.188202,43.566662 221.022888,64.879257 
	C228.425827,70.758820 234.053345,78.873795 240.746857,86.226013 
M171.831039,143.013245 
	C180.387985,139.403229 188.715424,135.013168 197.568115,132.408218 
	C205.986481,129.931046 204.975998,122.780205 207.704697,117.378448 
	C192.905991,122.482895 181.541031,132.286102 169.934402,142.699661 
	C169.809143,143.058853 169.683884,143.418045 169.558609,143.777222 
	C170.062775,143.545929 170.566956,143.314636 171.831039,143.013245 
M130.183228,143.608856 
	C130.622238,143.652222 131.061249,143.695587 131.500259,143.738953 
	C131.212524,143.287598 130.924789,142.836227 130.240250,141.848846 
	C119.076454,131.995209 108.050873,121.931175 93.298027,116.873695 
	C94.986137,125.116005 97.630798,131.852127 106.379974,133.773560 
	C108.257408,134.185867 109.992035,135.231537 111.806808,135.949127 
	C117.844299,138.336441 123.888329,140.707184 130.183228,143.608856 
M208.474457,160.032562 
	C212.335739,149.902893 216.197021,139.773224 220.301498,129.005539 
	C199.531723,137.623489 179.581772,145.901276 159.244324,154.339844 
	C159.806061,147.468353 160.305511,141.358688 160.813263,135.147583 
	C153.000244,137.171051 153.144180,137.174591 152.960281,144.657288 
	C152.769409,152.423691 152.271667,160.182846 151.856552,167.942413 
	C151.839127,168.267929 151.299667,168.565506 150.872284,169.013565 
	C150.524261,168.442200 150.116470,168.072281 150.080292,167.669037 
	C149.361145,159.651779 148.458664,151.641754 148.065948,143.607147 
	C147.699112,136.102188 147.941360,136.090347 140.448120,135.729172 
	C140.931686,141.693665 141.417130,147.681107 141.956726,154.336594 
	C131.345795,149.951752 121.267174,145.799484 111.198746,141.622650 
	C101.277451,137.506882 91.366470,133.366241 80.929260,129.019241 
	C87.531898,146.578491 93.606354,163.284119 100.135887,179.809952 
	C102.539558,185.893463 103.054695,193.600754 111.358170,195.768295 
	C113.702644,196.380295 115.887924,197.613739 118.133209,198.592041 
	C126.191788,202.103226 134.244781,205.627228 142.690460,209.317017 
	C143.308899,204.015091 143.860931,199.282516 144.412979,194.549957 
	C145.992981,200.407532 145.973312,206.453323 147.147705,212.257538 
	C148.313416,218.018906 146.178757,224.517670 150.017517,229.707275 
	C150.745773,229.723206 151.474014,229.739136 152.202271,229.755066 
	C153.444077,218.040253 154.685898,206.325439 155.927719,194.610626 
	C156.233078,194.646103 156.538422,194.681580 156.843765,194.717056 
	C157.372452,199.405548 157.901123,204.094025 158.455841,209.013504 
	C159.419510,208.822723 160.258255,208.806259 160.966461,208.493881 
	C170.389175,204.337402 179.835892,200.230576 189.176422,195.895493 
	C191.923828,194.620377 195.697632,193.249146 196.702164,190.927338 
	C200.969910,181.063171 204.373962,170.825333 208.474457,160.032562 
M148.057846,75.473503 
	C144.389084,78.800781 140.441925,81.873589 137.115021,85.513329 
	C131.755264,91.377052 128.641113,98.352425 129.032135,106.493950 
	C129.306458,112.206230 130.626556,113.267647 135.879974,112.364571 
	C136.172958,101.679680 139.934799,92.362244 148.737106,85.954018 
	C155.274582,81.194641 162.458313,77.322975 168.280899,73.720032 
	C169.299896,80.267853 170.060425,87.124710 171.513412,93.831573 
	C172.563950,98.680733 171.735001,102.938095 169.376831,107.035675 
	C168.246216,109.000229 166.763840,110.762321 165.156158,113.014877 
	C173.572006,110.960503 180.083328,98.613106 177.632065,90.228111 
	C175.432022,82.702461 170.932465,75.620636 173.559799,66.828217 
	C168.805481,69.320007 164.688034,72.159752 160.533386,74.943985 
	C158.970627,75.991272 157.321564,76.909805 155.711853,77.887032 
	C154.904968,76.126282 154.098068,74.365532 153.218948,72.447128 
	C151.761398,73.290405 150.217941,74.183380 148.057846,75.473503 
M163.797653,82.607040 
	C151.055450,88.609276 140.762741,96.443504 140.949356,113.000000 
	C144.886765,113.000000 148.344131,113.000351 151.801498,112.999939 
	C161.965363,112.998726 169.104813,103.133835 166.163147,93.363510 
	C165.178802,90.094170 164.687286,86.676437 163.797653,82.607040 
M138.149643,129.612122 
	C150.968094,135.707260 165.579590,132.555725 168.137939,123.332458 
	C156.323166,123.332458 144.454697,123.332458 132.586227,123.332458 
	C132.380829,123.650543 132.175430,123.968620 131.970032,124.286705 
	C133.853455,125.886696 135.736893,127.486694 138.149643,129.612122 
M237.983948,160.216507 
	C237.983948,157.605209 237.983948,154.993896 237.983948,151.623688 
	C243.971344,151.623688 249.383896,151.623688 254.796463,151.623688 
	C254.779434,151.116699 254.762421,150.609695 254.745407,150.102707 
	C249.270279,150.102707 243.795166,150.102707 238.374588,150.102707 
	C237.873947,144.299423 237.655380,139.195923 236.937012,134.163773 
	C236.223450,129.165207 235.154205,124.202911 233.968628,119.290436 
	C232.853836,114.671303 231.383530,110.137970 230.080643,105.605156 
	C232.649445,120.225975 235.202621,134.757904 237.960999,150.457779 
	C230.503815,150.457779 224.336044,150.457779 218.168259,150.457779 
	C218.202850,151.008759 218.237442,151.559738 218.272034,152.110718 
	C224.461182,152.110718 230.650345,152.110718 238.144012,152.110718 
	C234.993469,168.537308 232.016754,184.057587 229.178009,198.858505 
	C230.289169,195.438461 231.991730,191.347015 232.923965,187.087021 
	C234.806061,178.486603 236.269608,169.794586 237.983948,160.216507 
M76.378807,152.000000 
	C78.525391,151.891113 80.671974,151.782227 82.818558,151.673340 
	C82.795677,151.174210 82.772797,150.675095 82.749916,150.175964 
	C76.965942,150.175964 71.181976,150.175964 65.163559,150.175964 
	C64.229340,133.543350 68.127373,118.449783 72.787430,103.468567 
	C65.865700,118.079582 64.259773,133.830521 62.778141,150.310211 
	C57.084587,150.310211 51.661301,150.310211 46.238018,150.310211 
	C46.241589,150.811234 46.245155,151.312241 46.248722,151.813263 
	C51.706261,151.813263 57.163799,151.813263 62.060528,151.813263 
	C64.301056,165.292801 66.407852,177.967758 68.514648,190.642715 
	C69.099579,190.560150 69.684509,190.477570 70.269440,190.395004 
	C67.181343,177.903030 64.056854,165.414871 65.267143,152.000000 
	C68.829521,152.000000 72.122231,152.000000 76.378807,152.000000 
M140.522202,116.000000 
	C136.110825,116.050240 131.699448,116.100471 127.288063,116.150711 
	C127.311188,116.868378 127.334312,117.586052 127.357437,118.303719 
	C142.816849,118.303719 158.276260,118.303719 174.209412,118.303719 
	C173.587418,117.458038 173.229706,116.530365 172.851654,116.521996 
	C162.407532,116.290863 151.961334,116.153183 140.522202,116.000000 
M114.050102,114.518936 
	C112.575783,113.399063 111.101463,112.279182 109.044022,110.716377 
	C111.910431,119.492233 120.112473,128.098618 128.699738,130.060730 
	C124.016693,125.013695 119.333656,119.966660 114.050102,114.518936 
M189.105682,118.525879 
	C190.110001,116.209709 191.114319,113.893539 192.118637,111.577362 
	C184.485336,116.695869 177.896851,122.479141 173.514801,130.250488 
	C173.876968,130.641968 174.239120,131.033447 174.601288,131.424942 
	C179.380051,127.367149 184.158813,123.309364 189.105682,118.525879 
M86.684753,89.000000 
	C95.062729,89.000000 103.440712,89.000000 112.058090,89.000000 
	C110.872673,94.635597 109.848488,99.504669 108.824303,104.373741 
	C110.721008,100.509529 111.981842,96.507591 112.755653,92.413605 
	C113.269302,89.696053 114.564079,88.857780 117.143883,88.965668 
	C120.563957,89.108704 123.994522,89.000908 127.420578,89.000908 
	C127.421692,88.666939 127.422806,88.332977 127.423920,87.999008 
	C121.633003,87.999008 115.842094,87.998909 110.051186,87.999031 
	C101.407181,87.999214 92.762482,88.050591 84.120094,87.932472 
	C83.088783,87.918381 82.070084,86.981361 82.032211,86.962540 
	C76.951027,87.502914 72.282448,87.999413 67.581619,88.499329 
	C70.935387,90.447601 75.815857,86.693275 77.995819,90.238075 
	C80.684021,89.808807 83.216484,89.404404 86.684753,89.000000 
M231.078583,88.998871 
	C231.873184,88.901985 232.667770,88.805107 233.462372,88.708221 
	C233.453644,88.309540 233.444931,87.910858 233.436218,87.512177 
	C218.790726,87.512177 204.145218,87.512177 189.499710,87.512177 
	C189.496323,88.008118 189.492935,88.504059 189.489548,89.000000 
	C195.927567,89.000000 202.438614,89.610817 208.785934,88.852028 
	C217.569977,87.801933 223.760025,89.933525 226.136108,99.140884 
	C226.165543,99.254883 226.528870,99.282715 227.510254,99.604607 
	C225.859329,95.896904 224.445450,92.721603 222.788269,88.999878 
	C225.651016,88.999878 227.935059,88.999878 231.078583,88.998871 
M77.014030,214.000717 
	C82.020164,214.000473 87.026291,214.000122 92.032425,214.000031 
	C98.448387,213.999908 104.864349,214.000000 111.280312,214.000000 
	C104.622597,213.000000 97.965096,212.707703 91.344734,213.078568 
	C84.082535,213.485382 77.293274,213.681946 74.755409,204.701675 
	C75.814865,207.300400 76.874329,209.899109 78.186035,213.116531 
	C73.979553,213.116531 70.340576,213.116531 66.701599,213.116531 
	C66.707291,213.411041 66.712982,213.705536 66.718674,214.000046 
	C69.856087,214.000046 72.993492,214.000046 77.014030,214.000717 
M210.426666,214.000000 
	C218.100342,214.037613 225.774017,214.075241 233.447708,214.112869 
	C218.843201,212.740265 204.243469,213.112732 189.639191,214.000000 
	C196.242981,214.000000 202.846756,214.000000 210.426666,214.000000 
M183.157318,213.999908 
	C184.281723,213.915710 185.406128,213.831512 186.530518,213.747314 
	C186.525284,213.586563 186.520035,213.425797 186.514801,213.265030 
	C178.866928,213.265030 171.219070,213.265030 163.571213,213.265030 
	C163.566559,213.510025 163.561920,213.755005 163.557266,214.000000 
	C169.781799,214.000000 176.006348,214.000000 183.157318,213.999908 
M134.086121,213.000046 
	C127.550262,213.000046 121.014397,213.000046 114.478539,213.000046 
	C114.483269,213.237274 114.488007,213.474503 114.492744,213.711731 
	C122.115471,213.711731 129.738205,213.711731 137.360931,213.711731 
	C137.366119,213.549500 137.371323,213.387283 137.376526,213.225052 
	C136.576096,213.150299 135.775681,213.075546 134.086121,213.000046 
M112.397903,208.874084 
	C111.762009,206.282883 111.126114,203.691696 110.490219,201.100494 
	C110.139809,201.197739 109.789406,201.294983 109.438995,201.392227 
	C110.318588,204.795670 111.198181,208.199112 112.077774,211.602554 
	C112.338547,211.547379 112.599319,211.492188 112.860092,211.436996 
	C112.860092,210.792099 112.860092,210.147202 112.397903,208.874084 
M190.102173,207.693405 
	C190.685944,205.626221 191.269714,203.559021 191.853470,201.491837 
	C191.500229,201.404404 191.146988,201.316956 190.793747,201.229523 
	C189.890671,204.704895 188.987610,208.180252 188.084534,211.655624 
	C188.389236,211.741791 188.693939,211.827957 188.998627,211.914124 
	C189.338501,210.768539 189.678360,209.622940 190.102173,207.693405 
M115.086395,218.282974 
	C114.684540,217.240570 114.282684,216.198166 113.880836,215.155762 
	C113.582237,215.282059 113.283646,215.408371 112.985054,215.534683 
	C113.741463,217.497772 114.497879,219.460861 115.254295,221.423950 
	C115.516945,221.331375 115.779594,221.238785 116.042244,221.146194 
	C115.841225,220.406784 115.640205,219.667374 115.086395,218.282974 
M185.399689,88.017059 
	C184.809647,88.146126 184.219589,88.275200 183.629547,88.404274 
	C183.669693,88.655869 183.709854,88.907463 183.750000,89.159058 
	C184.532837,88.801010 185.315659,88.442970 185.399689,88.017059 
M187.877731,86.382812 
	C187.691360,86.102875 187.504990,85.822937 187.318619,85.543007 
	C187.373215,85.971054 187.427811,86.399101 187.877731,86.382812 
M188.878693,90.613823 
	C188.625458,90.718651 188.372223,90.823479 188.118988,90.928322 
	C188.374283,91.021011 188.629578,91.113701 188.878693,90.613823 
M129.274429,132.175797 
	C129.163010,132.515182 129.051605,132.854568 128.940186,133.193954 
	C129.166595,133.259369 129.393021,133.324783 129.619431,133.390198 
	C129.683990,133.113342 129.748550,132.836472 129.274429,132.175797 
M173.295349,131.461349 
	C172.922684,131.528748 172.550018,131.596130 172.177353,131.663513 
	C172.274918,131.920242 172.372482,132.176971 172.470047,132.433685 
	C172.692245,132.322662 172.914429,132.211655 173.295349,131.461349 
M187.513702,215.175018 
	C187.442886,215.598389 187.372070,216.021759 187.301270,216.445129 
	C187.495590,216.176208 187.689896,215.907288 187.513702,215.175018 
z"/>
<path fill="#458BCA" opacity="1.000000" stroke="none" 
	d="
M262.700256,75.345108 
	C266.142090,78.089729 265.396606,79.742645 261.885223,80.977058 
	C258.064178,82.320351 254.299255,83.823364 249.885590,85.492867 
	C248.781311,84.096138 247.297882,82.219826 245.899124,80.450623 
	C247.736084,78.706841 249.284912,77.236588 250.833725,75.766335 
	C250.679886,75.467888 250.526047,75.169441 250.372208,74.870995 
	C248.318237,75.556366 246.264267,76.241737 243.136948,77.285263 
	C242.774277,76.818665 241.628799,75.580551 240.785645,74.162659 
	C240.351089,73.431877 239.999817,72.028061 240.386246,71.530647 
	C243.642090,67.339584 247.077362,63.287899 250.716782,58.881828 
	C251.955414,60.711090 253.033310,62.302967 253.990356,63.716362 
	C252.525482,65.408600 251.291672,66.833916 250.057846,68.259224 
	C250.250458,68.570610 250.443069,68.881996 250.635681,69.193382 
	C252.613266,68.351250 254.590836,67.509125 256.658203,66.628761 
	C257.886871,68.283005 259.333862,70.231178 260.780884,72.179352 
	C260.309479,71.830803 259.838104,71.482254 259.366699,71.133705 
	C257.963776,72.826027 256.560822,74.518349 255.157867,76.210663 
	C255.595032,76.712051 256.032196,77.213440 256.469360,77.714821 
	C258.444244,76.854721 260.419128,75.994621 262.700256,75.345108 
z"/>
<path fill="#458BCA" opacity="1.000000" stroke="none" 
	d="
M271.961700,196.942993 
	C272.306458,198.449493 272.823364,199.940002 272.965057,201.465363 
	C273.471191,206.914902 271.426849,208.806000 264.990295,209.148727 
	C264.508484,211.283081 264.033997,213.384979 263.799927,214.421814 
	C264.521973,216.787643 265.005096,218.370743 265.488251,219.953827 
	C263.817505,219.687286 262.007324,219.739273 260.507385,219.082565 
	C258.002747,217.985977 255.696487,216.436279 252.370621,214.545059 
	C255.122467,211.372299 257.522675,208.604980 260.389130,205.300095 
	C258.962860,199.026871 260.953430,196.272736 268.610107,196.004013 
	C268.999023,196.001297 268.952820,195.968887 269.120148,196.314728 
	C270.207977,196.777512 271.128479,196.894485 272.025238,196.996796 
	C272.001495,196.982147 271.961700,196.942993 271.961700,196.942993 
z"/>
<path fill="#458BCA" opacity="1.000000" stroke="none" 
	d="
M68.610016,58.637154 
	C70.051399,58.033321 71.492783,57.429489 72.934166,56.825657 
	C72.534233,56.261333 72.134300,55.697014 71.734367,55.132690 
	C72.891022,56.236786 74.047668,57.340881 74.548645,57.819096 
	C70.879517,62.374718 67.500877,66.569664 64.068275,70.831619 
	C59.617737,65.827629 56.013329,61.774990 51.698738,56.923851 
	C55.487209,53.726913 59.592346,50.262753 64.119911,46.442120 
	C64.662331,47.038395 65.844849,48.338326 67.215401,49.844971 
	C66.085976,50.796169 65.148689,51.585541 64.802582,51.877029 
	C65.954323,53.803520 66.968254,55.499500 67.605606,57.601181 
	C66.112068,59.053051 64.995110,60.099228 63.878147,61.145401 
	C64.421303,61.690907 64.964462,62.236416 65.507629,62.781921 
	C66.541756,61.400333 67.575890,60.018742 68.610016,58.637154 
z"/>
<path fill="#458BCA" opacity="1.000000" stroke="none" 
	d="
M32.067593,96.353508 
	C30.953005,95.081253 29.596811,94.080055 27.786394,92.743530 
	C28.516830,91.312294 29.368267,89.643967 30.018396,88.370087 
	C35.224747,90.687988 40.001350,92.814552 45.189579,95.124382 
	C44.413731,96.852554 43.562904,98.747726 43.026081,99.943474 
	C39.120049,100.688751 35.763786,101.329132 31.597181,102.124130 
	C34.941311,103.547325 37.423195,104.603569 40.122971,105.752541 
	C39.595398,107.499817 39.089226,109.176224 38.539803,110.995865 
	C33.319149,108.686066 28.284853,106.458717 23.310638,104.257950 
	C23.830622,99.276398 26.783089,96.782990 32.067593,96.353508 
z"/>
<path fill="#458BCA" opacity="1.000000" stroke="none" 
	d="
M80.195557,55.281013 
	C79.203484,55.870358 78.457283,56.218315 77.686752,56.577621 
	C74.688423,52.118267 71.685814,47.652550 68.472130,42.872894 
	C70.845680,41.154911 73.278030,38.795673 76.184044,37.493477 
	C78.252312,36.566681 81.374634,36.236103 83.250900,37.180473 
	C84.812607,37.966511 85.245209,40.995861 86.177925,43.031570 
	C85.835953,43.371258 85.493980,43.710941 85.152016,44.050629 
	C87.034576,44.914391 88.917137,45.778156 90.967354,46.718845 
	C87.997292,53.301678 83.725136,49.293457 79.307823,48.531273 
	C80.280647,49.922180 81.253471,51.313087 82.383141,52.928238 
	C81.985313,53.360832 81.213371,54.200230 80.195557,55.281013 
z"/>
<path fill="#458BCA" opacity="1.000000" stroke="none" 
	d="
M213.968109,33.796448 
	C216.208466,33.537586 218.405518,33.653725 220.602554,33.769863 
	C216.694641,38.599876 216.882935,39.369053 222.288879,41.932381 
	C222.686783,41.293159 223.165085,40.666431 223.487534,39.967773 
	C223.825317,39.235897 224.013474,38.434959 224.453049,37.098663 
	C226.315445,38.450970 228.057724,39.716049 229.729523,40.929947 
	C226.739075,45.722664 223.941483,50.206318 220.915268,55.056370 
	C219.397537,54.059227 217.676804,52.928711 215.899338,51.760925 
	C217.153824,49.897720 218.175613,48.380100 219.178101,46.891144 
	C214.231552,42.900692 213.783768,43.044765 212.492401,49.093994 
	C210.418777,48.106361 208.433090,47.160614 206.158478,46.077263 
	C208.865845,41.926865 211.395325,38.049156 213.968109,33.796448 
z"/>
<path fill="#458BCA" opacity="1.000000" stroke="none" 
	d="
M175.796143,33.999443 
	C170.805634,34.022449 166.765869,32.864178 165.146729,28.077780 
	C163.871674,24.308504 166.338074,19.963314 170.327606,17.892469 
	C174.138412,15.914390 177.143997,17.712076 180.321701,19.621582 
	C184.029755,21.849764 183.694275,25.684570 182.687012,28.348545 
	C181.794113,30.710051 178.467712,32.151440 175.796143,33.999443 
M171.687653,28.136019 
	C173.501266,27.956530 175.401764,28.019348 177.065735,27.422606 
	C177.468246,27.278257 177.568863,24.158684 176.971024,23.799057 
	C175.696091,23.032101 173.420547,22.483364 172.403107,23.146488 
	C171.417374,23.788929 171.494110,26.061502 171.687653,28.136019 
z"/>
<path fill="#458BCA" opacity="1.000000" stroke="none" 
	d="
M271.222015,89.557098 
	C271.527222,91.154366 272.261414,92.897736 271.693665,93.625702 
	C268.389862,97.861877 264.780273,101.859535 260.953339,106.310783 
	C259.875031,104.440727 258.942749,102.823959 257.889069,100.996590 
	C258.831421,100.253433 259.676361,99.587112 260.953583,98.579910 
	C258.320892,97.360718 259.661743,91.908966 254.455231,93.519829 
	C254.125717,93.621780 252.829712,90.599915 251.824997,88.737846 
	C257.752960,88.075661 263.382996,87.446770 269.674194,86.744011 
	C269.851837,87.065620 270.450714,88.149887 271.222015,89.557098 
z"/>
<path fill="#458BCA" opacity="1.000000" stroke="none" 
	d="
M237.715027,48.799942 
	C240.086136,49.710266 242.184158,50.864120 243.859390,51.785454 
	C241.561676,58.224304 239.554779,63.848190 237.547882,69.472076 
	C237.139374,69.667534 236.730850,69.862991 236.322342,70.058449 
	C235.510025,67.676682 234.549744,65.332932 233.925369,62.902878 
	C233.246613,60.261108 229.325302,58.532421 226.435654,59.940907 
	C225.395386,58.961475 224.315155,57.944424 222.975723,56.683331 
	C228.056961,53.999836 232.749451,51.521656 237.715027,48.799942 
z"/>
<path fill="#458BCA" opacity="1.000000" stroke="none" 
	d="
M100.753761,25.728107 
	C100.922714,27.388357 100.922714,28.713207 100.922714,29.992281 
	C98.737709,30.734993 96.586456,31.466230 94.435211,32.197468 
	C94.529579,32.509132 94.623947,32.820793 94.718307,33.132454 
	C96.379921,32.759888 98.151886,31.839029 99.676727,32.145958 
	C101.849884,32.583374 105.558182,33.900517 105.570107,34.878944 
	C105.599014,37.250698 104.473038,40.376881 102.694397,41.838181 
	C100.590858,43.566406 97.357613,44.204147 94.516754,44.580986 
	C93.638260,44.697514 92.441841,42.417393 91.142807,40.955254 
	C95.160446,39.889191 98.005005,39.134399 100.849564,38.379612 
	C100.749420,37.970810 100.649284,37.562012 100.549149,37.153214 
	C98.328262,37.435390 96.074570,38.079498 93.897148,37.882118 
	C92.236084,37.731548 89.268684,36.412701 89.313858,35.789940 
	C89.484314,33.440102 89.984077,30.308701 91.594398,29.056208 
	C94.053413,27.143606 97.536499,26.547657 100.753761,25.728107 
z"/>
<path fill="#458BCA" opacity="1.000000" stroke="none" 
	d="
M21.291267,110.608192 
	C24.087400,111.209785 26.609140,112.273483 29.228262,112.972137 
	C34.424282,114.358200 35.793514,116.620598 34.990860,123.057686 
	C34.465500,127.270950 31.865818,129.332291 26.938063,128.943237 
	C23.789650,128.694672 20.683517,127.910545 16.984097,127.266541 
	C17.359339,125.491814 17.809093,123.364677 18.185946,121.582344 
	C22.517363,120.256325 27.156017,127.710754 31.198524,119.712143 
	C27.205608,118.558830 23.535959,117.498894 19.496193,116.332054 
	C19.948641,114.762856 20.504772,112.834053 21.291267,110.608192 
z"/>
<path fill="#458BCA" opacity="1.000000" stroke="none" 
	d="
M47.753983,68.237846 
	C44.501129,64.954056 46.497578,63.008057 49.073685,60.735130 
	C52.256439,65.676613 55.271503,70.357742 58.596718,75.520409 
	C57.545818,76.905937 56.006336,78.935623 54.861549,80.444923 
	C49.514965,78.285141 44.512344,76.264297 38.943325,74.014664 
	C39.950329,72.449684 41.109528,70.648178 42.210068,68.937836 
	C44.848297,70.111565 47.008743,71.072731 50.265244,72.521523 
	C49.142784,70.529709 48.568893,69.511322 47.753983,68.237846 
z"/>
<path fill="#458BCA" opacity="1.000000" stroke="none" 
	d="
M196.838593,28.040354 
	C195.084717,27.704897 193.718903,27.413206 192.353104,27.121515 
	C192.244614,27.528324 192.136124,27.935135 192.027649,28.341946 
	C193.902573,29.054411 195.777496,29.766878 198.148453,30.667839 
	C197.636047,32.080040 197.120178,33.501804 196.547455,35.080212 
	C194.635269,34.263908 193.014160,33.571869 190.818695,32.634632 
	C189.959366,34.438721 189.169647,36.096664 188.255478,38.015911 
	C186.642548,37.580933 184.964157,37.128304 183.206299,36.654243 
	C184.890213,31.562752 186.530823,26.602203 188.429245,20.862116 
	C192.687531,22.186186 197.696060,23.743536 202.916641,25.366825 
	C202.469284,26.877005 202.069305,28.227200 201.523865,30.068504 
	C200.017868,29.373056 198.622253,28.728588 196.838593,28.040354 
z"/>
<path fill="#458BCA" opacity="1.000000" stroke="none" 
	d="
M150.754028,18.766125 
	C148.832794,23.000872 145.189514,26.521177 148.180603,31.704943 
	C145.693039,31.704943 143.609589,31.704943 141.548538,31.704943 
	C143.733063,24.463404 136.599991,21.850849 134.213348,16.435345 
	C137.963943,15.825898 141.718658,14.595325 143.816116,20.615210 
	C144.606003,18.201416 145.086426,16.733290 145.607117,15.142086 
	C147.909668,15.142086 150.212952,15.142086 153.410736,15.142086 
	C152.375793,16.588493 151.696198,17.538288 150.754028,18.766125 
z"/>
<path fill="#458BCA" opacity="1.000000" stroke="none" 
	d="
M118.406464,24.220425 
	C117.186691,22.947437 116.311371,21.508709 115.220322,19.715410 
	C121.345787,18.416265 126.391937,17.346033 131.533096,16.255650 
	C131.975708,17.971743 132.411087,19.659801 132.848572,21.356007 
	C131.017624,21.638014 129.255295,21.909454 127.374496,22.199139 
	C128.208893,26.176544 128.966553,29.788240 129.756882,33.555603 
	C127.949646,33.995235 126.116188,34.441246 124.168503,34.915043 
	C123.341064,30.837872 122.564339,27.010601 121.737694,22.937359 
	C120.534355,23.387518 119.642632,23.721104 118.406464,24.220425 
z"/>
<path fill="#458BCA" opacity="1.000000" stroke="none" 
	d="
M33.393837,214.393280 
	C34.614456,213.603928 35.589725,213.083206 35.835552,212.951950 
	C33.450535,211.257080 31.022116,209.531372 27.781200,207.228271 
	C32.634941,204.743423 36.330524,202.851501 40.995941,200.463058 
	C41.300121,203.153580 41.539577,205.271591 41.783398,207.428223 
	C42.821548,208.225128 44.699654,209.666779 47.048676,211.469925 
	C42.254524,213.945694 38.577763,215.844421 34.571781,217.913162 
	C34.124115,216.890564 33.636303,215.776245 33.393837,214.393280 
M32.889290,208.852356 
	C32.897999,209.111557 32.906708,209.370758 32.915413,209.629959 
	C33.182892,209.592636 33.450375,209.555313 33.717850,209.517990 
	C33.593624,209.136200 33.469398,208.754395 32.889290,208.852356 
z"/>
<path fill="#458BCA" opacity="1.000000" stroke="none" 
	d="
M202.997314,259.566650 
	C204.276520,258.883331 205.314636,258.458069 206.205383,258.093201 
	C207.969101,262.102844 209.651932,265.928589 211.416534,269.940247 
	C207.923035,274.599884 205.592804,268.324493 202.451752,268.472290 
	C202.358459,268.749847 202.162247,269.049194 202.176239,269.338409 
	C202.263657,271.145203 202.397995,272.949707 202.516800,274.754974 
	C201.163300,273.482117 199.483810,272.412262 198.534439,270.887756 
	C197.185699,268.721893 196.373993,266.221649 194.751236,262.547424 
	C197.941711,262.547424 200.723953,262.547424 203.502533,262.547424 
	C203.412338,262.218353 203.084274,261.021545 202.997314,259.566650 
z"/>
<path fill="#458BCA" opacity="1.000000" stroke="none" 
	d="
M75.991837,247.021210 
	C79.105026,248.734924 82.218216,250.448639 85.332558,252.163925 
	C82.589676,255.869202 79.845634,259.572906 77.086426,263.297119 
	C74.711540,261.587158 71.833282,259.514771 68.780006,257.316345 
	C71.243492,253.925690 73.537628,250.768097 75.926178,247.296936 
	C76.020584,246.983383 75.991837,247.021210 75.991837,247.021210 
z"/>
<path fill="#458BCA" opacity="1.000000" stroke="none" 
	d="
M270.000763,183.014679 
	C269.652161,179.766357 266.385101,176.865250 269.325012,173.198013 
	C271.959656,169.911591 275.460876,170.492035 278.347229,171.386520 
	C281.477142,172.356491 281.567444,175.558838 281.085480,178.716614 
	C280.521393,182.412399 278.340912,183.221069 275.187897,182.996262 
	C273.717926,182.891479 272.250702,182.748291 270.371033,182.798462 
	C269.959808,182.974426 270.000763,183.014679 270.000763,183.014679 
z"/>
<path fill="#458BCA" opacity="1.000000" stroke="none" 
	d="
M269.936096,182.958206 
	C272.138031,183.718140 274.472961,184.283615 276.543701,185.358231 
	C277.598358,185.905563 278.178101,187.367920 278.972534,188.416656 
	C278.007416,188.984421 277.082092,189.640549 276.067139,190.097641 
	C274.786102,190.674545 273.431946,191.089157 270.907074,192.014297 
	C273.480865,192.852020 274.979889,193.339920 276.833130,193.943100 
	C276.696228,196.119629 276.838989,198.903824 272.327515,196.976013 
	C271.961700,196.942993 272.001495,196.982147 271.874237,196.673904 
	C270.815582,196.233414 269.884216,196.101151 268.952820,195.968903 
	C268.952820,195.968887 268.999023,196.001297 269.022339,196.017303 
	C267.218781,195.170456 265.391907,194.307602 262.441010,192.913864 
	C264.699921,190.823700 266.746368,188.930099 268.672943,187.147446 
	C268.304352,187.071564 267.204559,186.845200 266.104767,186.618820 
	C265.886627,186.162064 265.668488,185.705322 265.450317,185.248581 
	C266.738403,184.494980 268.026459,183.741379 269.657654,183.001221 
	C270.000763,183.014679 269.959808,182.974426 269.936096,182.958206 
z"/>
<path fill="#458BCA" opacity="1.000000" stroke="none" 
	d="
M130.805298,273.607391 
	C131.116913,277.006165 131.453857,280.540558 127.847702,281.406342 
	C125.440323,281.984314 122.134819,281.569427 120.163208,280.228577 
	C118.892265,279.364166 118.429878,275.629974 119.199715,273.885803 
	C120.093437,271.860901 122.673759,269.443176 124.629730,269.345123 
	C126.574371,269.247650 128.652740,271.817688 130.805298,273.607391 
z"/>
<path fill="#458BCA" opacity="1.000000" stroke="none" 
	d="
M98.028809,270.937347 
	C97.321976,271.781342 96.615135,272.625336 95.790497,273.609985 
	C92.592361,271.894440 89.368164,270.164948 86.120613,268.422882 
	C88.034477,264.649139 89.922775,260.925781 92.053879,256.723694 
	C95.261871,258.250916 98.592552,259.836548 102.657707,261.771851 
	C100.242340,263.887054 98.223709,265.654816 95.790840,267.785339 
	C95.022537,267.466675 93.734230,266.932343 92.445923,266.398010 
	C92.297035,266.663483 92.148148,266.928955 91.999260,267.194427 
	C93.984459,268.207550 95.969650,269.220642 97.980087,270.605743 
	C98.005318,270.977753 98.028809,270.937347 98.028809,270.937347 
z"/>
<path fill="#458BCA" opacity="1.000000" stroke="none" 
	d="
M179.051743,266.289154 
	C181.361511,262.847931 182.673843,262.829956 184.460510,266.647644 
	C186.355148,270.695984 189.371155,274.219543 192.261826,278.513611 
	C188.043701,279.996735 182.051620,274.890900 180.460373,283.927338 
	C179.979675,283.212677 179.498978,282.497986 179.018280,281.783325 
	C179.018280,276.757721 179.018280,271.732117 179.051743,266.289154 
z"/>
<path fill="#458BCA" opacity="1.000000" stroke="none" 
	d="
M69.071091,244.083359 
	C72.286964,241.983002 74.003868,244.301071 75.898872,246.694702 
	C75.991837,247.021210 76.020584,246.983383 76.038254,246.966431 
	C69.193748,245.648346 68.896805,250.868576 67.827705,255.292419 
	C64.458809,254.177872 64.458809,254.177872 64.870537,248.099716 
	C63.754894,249.268723 63.017406,250.041473 62.014713,251.092117 
	C60.852135,250.104782 59.643764,249.078552 58.313351,247.948685 
	C61.147732,244.718277 63.849560,241.638947 66.653252,238.443497 
	C68.106148,239.423584 71.668480,239.393646 68.353394,243.266891 
	C67.809135,244.058807 67.683838,244.417984 67.558533,244.777176 
	C68.062721,244.545898 68.566910,244.314636 69.071091,244.083359 
z"/>
<path fill="#458BCA" opacity="1.000000" stroke="none" 
	d="
M239.083344,236.928879 
	C237.354858,233.813171 238.761185,231.934998 242.074081,230.198257 
	C240.510529,236.721191 244.887863,237.680298 249.733063,238.990906 
	C250.251816,239.294296 250.630020,239.615738 250.630020,239.615738 
	C248.774368,242.491852 246.577194,244.180023 242.887238,240.676086 
	C242.710297,241.314423 242.533371,241.952774 242.356430,242.591110 
	C243.300003,243.342926 244.243576,244.094757 245.561890,245.145172 
	C244.709000,245.761810 243.406738,246.703308 242.157532,247.606476 
	C239.539825,244.789780 236.707657,241.742325 233.585983,238.383362 
	C234.233475,237.603729 234.669830,234.486755 238.265808,237.645721 
	C239.058853,238.190872 239.418030,238.316132 239.777222,238.441391 
	C239.545929,237.937225 239.314636,237.433044 239.083344,236.928879 
z"/>
<path fill="#458BCA" opacity="1.000000" stroke="none" 
	d="
M45.988335,229.048218 
	C48.333691,227.090591 50.679043,225.132965 53.245815,222.990509 
	C54.145130,223.843079 55.068798,224.718750 56.184597,225.776566 
	C53.902252,228.263489 51.749466,230.609238 49.596676,232.955002 
	C50.007496,233.344711 50.418312,233.734436 50.829132,234.124161 
	C53.201283,232.456390 55.573437,230.788635 58.202847,228.940002 
	C59.094833,229.769684 60.033241,230.642532 61.350681,231.867950 
	C58.606522,233.934265 56.248280,236.241302 53.433910,237.611420 
	C51.963863,238.327072 48.665592,238.072891 47.998215,237.063385 
	C46.668892,235.052521 46.586357,232.217438 45.999268,229.365387 
	C46.009762,229.007919 45.988335,229.048218 45.988335,229.048218 
z"/>
<path fill="#458BCA" opacity="1.000000" stroke="none" 
	d="
M151.450226,284.688110 
	C147.001801,286.256348 146.902786,282.689148 145.246658,279.588867 
	C144.938263,281.873352 144.741440,283.331329 144.534256,284.866028 
	C143.265717,284.866028 141.959503,284.866028 140.305969,284.866028 
	C140.564178,280.732605 140.819656,276.642883 141.144669,271.439758 
	C142.840515,272.527832 144.500443,273.592865 146.066116,274.597412 
	C147.487045,273.765472 149.639923,272.505005 151.792801,271.244537 
	C152.075653,271.639008 152.358505,272.033508 152.641357,272.427979 
	C151.446167,273.874023 150.250977,275.320068 149.202438,276.588684 
	C150.105316,279.339722 150.948792,281.909821 151.450226,284.688110 
z"/>
<path fill="#458BCA" opacity="1.000000" stroke="none" 
	d="
M250.087402,239.108368 
	C248.294495,235.791473 246.541016,232.716202 245.106476,229.498734 
	C244.616730,228.400314 244.428360,226.590607 245.019775,225.756256 
	C245.564774,224.987396 247.464172,224.615479 248.551712,224.897842 
	C252.088776,225.816147 255.527222,227.114349 259.804962,229.772888 
	C258.704987,230.399963 257.629761,231.501816 256.500244,231.560577 
	C253.682922,231.707184 253.009232,232.638214 253.591309,235.460297 
	C253.806931,236.505768 252.017456,237.964752 250.886215,239.425446 
	C250.630020,239.615738 250.251816,239.294296 250.087402,239.108368 
z"/>
<path fill="#458BCA" opacity="1.000000" stroke="none" 
	d="
M46.029926,228.997208 
	C43.731472,229.053787 39.671768,231.663193 41.472145,225.684677 
	C41.652809,225.084732 39.591499,223.636063 38.395885,222.845703 
	C37.275715,222.105194 35.923458,221.715759 34.673328,221.171844 
	C35.164028,220.609726 35.654724,220.047623 36.145420,219.485504 
	C39.506084,218.444138 42.820103,217.168182 46.252144,216.485718 
	C47.491398,216.239304 49.412933,217.075195 50.261803,218.068100 
	C50.797367,218.694489 50.202518,220.672821 49.621532,221.787720 
	C48.427788,224.078537 46.902790,226.196716 45.751228,228.717087 
	C45.988335,229.048218 46.009762,229.007919 46.029926,228.997208 
z"/>
<path fill="#458BCA" opacity="1.000000" stroke="none" 
	d="
M20.023329,174.936310 
	C23.583792,173.017822 27.057871,171.472733 31.155748,169.650208 
	C31.581385,171.682541 31.860798,173.016678 32.138386,174.342102 
	C28.872261,175.284653 25.990942,176.116165 23.127287,176.942581 
	C25.472696,182.470123 32.530891,173.762329 33.863842,181.263535 
	C22.112980,184.724411 19.666065,183.668625 20.023329,174.936310 
z"/>
<path fill="#458BCA" opacity="1.000000" stroke="none" 
	d="
M97.985016,270.988770 
	C100.601273,268.716980 103.237831,266.434143 106.490211,263.618134 
	C109.478577,263.599548 110.812881,265.514069 110.092041,269.597046 
	C109.608971,272.333221 110.000160,275.223724 110.000160,278.355194 
	C108.802704,278.175354 106.971825,278.242493 106.856621,277.830200 
	C105.691963,273.662140 103.095711,273.531250 99.776672,274.970367 
	C99.319809,273.885345 98.862953,272.800293 98.217453,271.326294 
	C98.028809,270.937347 98.005318,270.977753 97.985016,270.988770 
z"/>
<path fill="#458BCA" opacity="1.000000" stroke="none" 
	d="
M212.032074,265.580200 
	C211.646179,262.761169 211.138000,260.350983 210.987717,257.918640 
	C210.921341,256.844421 211.265915,255.211868 211.995407,254.764359 
	C212.800476,254.270462 214.525589,254.449097 215.387741,255.025787 
	C218.359024,257.013245 221.128632,259.302216 224.474701,261.857971 
	C222.558640,262.646851 222.700195,267.205841 219.326324,263.495270 
	C219.252655,263.414246 217.132004,264.998444 216.158218,265.993683 
	C215.374527,266.794678 214.881653,267.880188 214.259735,268.839447 
	C213.524933,267.886292 212.790115,266.933167 212.032074,265.580200 
z"/>
<path fill="#458BCA" opacity="1.000000" stroke="none" 
	d="
M25.293730,191.689133 
	C23.744715,189.771072 22.388233,188.164108 20.563124,186.001984 
	C25.133959,186.001984 28.681168,185.784576 32.176399,186.115768 
	C33.460289,186.237427 35.206154,187.425217 35.653595,188.556793 
	C36.012897,189.465439 35.059017,191.401550 34.114582,192.221008 
	C31.418737,194.560043 28.430513,196.562073 24.606918,199.402771 
	C24.975239,196.302155 25.230751,194.151199 25.293730,191.689133 
z"/>
<path fill="#458BCA" opacity="1.000000" stroke="none" 
	d="
M162.977509,275.887512 
	C164.159912,278.580750 165.252640,280.890381 166.345383,283.200043 
	C166.187759,283.640839 166.030151,284.081665 165.872543,284.522461 
	C161.410522,281.301422 157.305054,282.350433 152.627472,286.113037 
	C154.205475,280.409424 155.317169,276.391266 156.422455,272.396271 
	C158.036911,271.978577 159.587891,271.577362 161.368958,271.116577 
	C161.870956,272.566589 162.379410,274.035248 162.977509,275.887512 
z"/>
<path fill="#458BCA" opacity="1.000000" stroke="none" 
	d="
M34.262367,80.397202 
	C35.245777,79.082527 36.034863,78.088432 36.364864,77.672699 
	C41.202038,80.590416 45.817688,83.374512 50.658817,86.294609 
	C49.787151,87.768349 48.573250,89.820724 47.628273,91.418419 
	C42.817757,88.569313 38.141914,85.799980 33.228546,82.889961 
	C33.377308,82.505043 33.722675,81.611412 34.262367,80.397202 
z"/>
<path fill="#458BCA" opacity="1.000000" stroke="none" 
	d="
M107.967072,29.205917 
	C107.108032,26.934591 106.291229,25.055969 105.324226,22.831911 
	C107.319878,22.152000 109.259247,21.491268 111.120697,20.857079 
	C112.985603,26.218225 114.731667,31.237720 116.627525,36.687847 
	C114.939209,37.358597 112.888519,38.173317 110.774765,39.013092 
	C109.812088,35.735847 108.910690,32.667236 107.967072,29.205917 
z"/>
<path fill="#458BCA" opacity="1.000000" stroke="none" 
	d="
M281.379700,120.477783 
	C282.549225,122.552048 283.429199,124.911018 284.127747,126.783699 
	C278.410706,127.830467 273.284851,128.768982 267.583588,129.812851 
	C267.184326,128.373123 266.556610,126.109612 266.118286,124.529022 
	C271.246277,123.238953 276.168213,122.000717 281.379700,120.477783 
z"/>
<path fill="#458BCA" opacity="1.000000" stroke="none" 
	d="
M265.557343,113.215622 
	C264.723297,113.633308 264.210327,113.874817 263.697388,114.116325 
	C262.860046,112.117119 262.022705,110.117920 261.325653,108.453636 
	C266.782257,106.554886 271.737061,104.830742 276.942474,103.019402 
	C277.512451,104.191376 278.416748,106.050842 279.387848,108.047638 
	C274.565033,109.829697 270.221741,111.434570 265.557343,113.215622 
z"/>
<path fill="#458BCA" opacity="1.000000" stroke="none" 
	d="
M232.746948,253.252487 
	C232.734573,255.018784 232.470001,256.528381 231.984695,259.297424 
	C228.332764,254.726715 225.720490,251.457214 222.566330,247.509521 
	C223.555664,246.631195 224.595932,245.707642 225.835632,244.607040 
	C228.279922,247.686218 230.387329,250.341003 232.746948,253.252487 
z"/>
<path fill="#458BCA" opacity="1.000000" stroke="none" 
	d="
M190.954010,264.949066 
	C192.221207,265.170624 193.688248,265.218658 193.892212,265.750793 
	C195.205368,269.176788 196.242172,272.708649 197.487564,276.571289 
	C196.525970,276.921783 195.096970,277.442688 193.662979,277.965393 
	C192.220123,274.163757 190.788071,270.559570 189.541214,266.892456 
	C189.384430,266.431305 190.203064,265.638519 190.954010,264.949066 
z"/>
<path fill="#458BCA" opacity="1.000000" stroke="none" 
	d="
M274.778229,114.746109 
	C278.935730,111.391609 281.929504,112.808304 284.401794,116.012070 
	C282.368347,116.959587 280.475769,118.207115 278.401703,118.717995 
	C275.630463,119.400612 273.172089,119.039627 274.778229,114.746109 
z"/>
<path fill="#458BCA" opacity="1.000000" stroke="none" 
	d="
M172.618347,270.931213 
	C173.609634,270.078674 174.336288,269.494965 175.561401,268.510773 
	C175.929337,271.697784 176.219681,274.212708 176.510010,276.727631 
	C175.642609,276.905243 174.775192,277.082855 173.907791,277.260437 
	C173.389755,275.240295 172.871719,273.220123 172.618347,270.931213 
z"/>
<path fill="#FFFFFF" opacity="1.000000" stroke="none" 
	d="
M208.283966,160.378265 
	C204.373962,170.825333 200.969910,181.063171 196.702164,190.927338 
	C195.697632,193.249146 191.923828,194.620377 189.176422,195.895493 
	C179.835892,200.230576 170.389175,204.337402 160.966461,208.493881 
	C160.258255,208.806259 159.419510,208.822723 158.455841,209.013504 
	C157.901123,204.094025 157.372452,199.405548 156.843765,194.717056 
	C156.538422,194.681580 156.233078,194.646103 155.927719,194.610626 
	C154.685898,206.325439 153.444077,218.040253 152.202271,229.755066 
	C151.474014,229.739136 150.745773,229.723206 150.017517,229.707275 
	C146.178757,224.517670 148.313416,218.018906 147.147705,212.257538 
	C145.973312,206.453323 145.992981,200.407532 144.412979,194.549957 
	C143.860931,199.282516 143.308899,204.015091 142.690460,209.317017 
	C134.244781,205.627228 126.191788,202.103226 118.133209,198.592041 
	C115.887924,197.613739 113.702644,196.380295 111.358170,195.768295 
	C103.054695,193.600754 102.539558,185.893463 100.135887,179.809952 
	C93.606354,163.284119 87.531898,146.578491 80.929260,129.019241 
	C91.366470,133.366241 101.277451,137.506882 111.198746,141.622650 
	C121.267174,145.799484 131.345795,149.951752 141.956726,154.336594 
	C141.417130,147.681107 140.931686,141.693665 140.448120,135.729172 
	C147.941360,136.090347 147.699112,136.102188 148.065948,143.607147 
	C148.458664,151.641754 149.361145,159.651779 150.080292,167.669037 
	C150.116470,168.072281 150.524261,168.442200 150.872284,169.013565 
	C151.299667,168.565506 151.839127,168.267929 151.856552,167.942413 
	C152.271667,160.182846 152.769409,152.423691 152.960281,144.657288 
	C153.144180,137.174591 153.000244,137.171051 160.813263,135.147583 
	C160.305511,141.358688 159.806061,147.468353 159.244324,154.339844 
	C179.581772,145.901276 199.531723,137.623489 220.301498,129.005539 
	C216.197021,139.773224 212.335739,149.902893 208.283966,160.378265 
M129.489197,174.013397 
	C128.655334,175.148651 127.821465,176.283890 126.987602,177.419144 
	C126.318077,176.126419 125.778625,174.742691 124.951431,173.560272 
	C123.329506,171.241806 125.651665,166.491119 120.244781,166.215637 
	C120.804428,169.365845 121.334229,172.348068 122.069145,176.484863 
	C119.472992,172.235092 116.850761,169.255692 115.739372,165.791580 
	C114.344536,161.443970 114.878937,161.272522 111.881920,160.612503 
	C112.140411,164.026245 112.416130,167.667435 112.691841,171.308640 
	C112.251938,171.358002 111.812027,171.407364 111.372124,171.456726 
	C109.206093,167.370651 107.040070,163.284592 104.398857,158.302124 
	C104.074272,160.788208 103.906380,162.074097 103.684288,163.775177 
	C101.874672,161.180145 100.397446,159.061768 98.920227,156.943390 
	C98.492081,157.132690 98.063942,157.322006 97.635803,157.511307 
	C98.402214,161.695374 99.168625,165.879456 99.935036,170.063522 
	C100.430580,170.018173 100.926125,169.972839 101.421661,169.927490 
	C101.756592,169.141113 102.091515,168.354752 102.391136,167.651276 
	C103.413963,168.721008 104.408684,169.761353 105.555832,170.961105 
	C105.773560,170.198639 105.872124,169.716263 106.053764,169.267532 
	C106.167320,168.987015 106.406090,168.757187 106.666504,168.396957 
	C109.358192,173.622864 109.360260,173.599960 116.174416,174.216049 
	C116.734978,174.266724 117.217354,174.958252 117.776764,175.281601 
	C121.704605,177.551926 125.634102,179.819901 129.595001,182.031433 
	C129.919495,182.212616 130.480240,181.943405 130.932724,181.927994 
	C132.054642,181.889786 133.453964,181.439880 134.245712,181.940308 
	C136.260468,183.213745 138.003738,184.916733 140.025314,186.588043 
	C140.966949,184.597183 141.503723,183.462326 142.084625,182.234146 
	C142.971909,183.480453 143.686249,184.483841 144.662415,185.854980 
	C146.010529,183.788605 146.782303,182.605637 147.591202,181.365784 
	C148.972168,185.391342 153.965271,188.121429 155.520813,185.670532 
	C157.962097,181.824036 159.374619,184.020554 161.075089,185.982925 
	C163.398895,183.012878 161.855453,177.550262 157.467514,173.026718 
	C155.833740,176.632141 154.235382,180.159424 152.473419,184.047745 
	C151.026535,180.390442 149.748581,177.160156 148.224731,173.308289 
	C146.903046,175.368866 146.067505,176.671478 145.015747,178.311218 
	C143.788391,176.423996 142.769562,174.857422 141.576996,173.023682 
	C140.430588,176.257950 139.432251,179.074509 138.096390,182.843246 
	C135.631729,178.151596 133.568909,174.224884 131.143478,169.607910 
	C130.575378,171.323608 130.232849,172.358047 129.489197,174.013397 
M165.699738,184.080750 
	C171.138489,182.316177 174.891998,176.318512 181.738205,177.742828 
	C182.269882,177.853439 183.413086,175.024704 184.272079,173.562149 
	C188.551559,177.008224 187.608459,171.119614 189.650650,170.584839 
	C189.954071,171.690079 190.264740,172.821732 190.710892,174.446808 
	C193.709702,172.188828 196.235107,170.287292 198.059769,168.913391 
	C200.045502,168.772522 202.594238,168.749680 202.605667,168.567596 
	C202.838074,164.863983 202.779999,161.142120 202.779999,157.423920 
	C202.255554,157.392990 201.731094,157.362061 201.206650,157.331131 
	C198.631821,161.370239 196.056992,165.409348 192.795837,170.525101 
	C192.795837,166.685043 192.795837,164.144928 192.795837,160.189301 
	C190.786148,163.096527 189.568787,164.857559 188.178329,166.868988 
	C187.525558,165.606537 186.970490,164.533005 186.377151,163.385513 
	C184.410950,167.203064 182.474976,170.961929 180.231705,175.317429 
	C179.010757,172.287323 178.006714,169.795502 176.858948,166.947021 
	C173.923935,171.707062 171.244827,176.052109 168.565704,180.397156 
	C166.913010,177.077438 169.962601,173.785172 164.992813,171.232635 
	C164.992813,176.252548 164.992813,180.319046 165.699738,184.080750 
z"/>
<path fill="#FFFFFF" opacity="1.000000" stroke="none" 
	d="
M148.366165,75.274933 
	C150.217941,74.183380 151.761398,73.290405 153.218948,72.447128 
	C154.098068,74.365532 154.904968,76.126282 155.711853,77.887032 
	C157.321564,76.909805 158.970627,75.991272 160.533386,74.943985 
	C164.688034,72.159752 168.805481,69.320007 173.559799,66.828217 
	C170.932465,75.620636 175.432022,82.702461 177.632065,90.228111 
	C180.083328,98.613106 173.572006,110.960503 165.156158,113.014877 
	C166.763840,110.762321 168.246216,109.000229 169.376831,107.035675 
	C171.735001,102.938095 172.563950,98.680733 171.513412,93.831573 
	C170.060425,87.124710 169.299896,80.267853 168.280899,73.720032 
	C162.458313,77.322975 155.274582,81.194641 148.737106,85.954018 
	C139.934799,92.362244 136.172958,101.679680 135.879974,112.364571 
	C130.626556,113.267647 129.306458,112.206230 129.032135,106.493950 
	C128.641113,98.352425 131.755264,91.377052 137.115021,85.513329 
	C140.441925,81.873589 144.389084,78.800781 148.366165,75.274933 
z"/>
<path fill="#FFFFFF" opacity="1.000000" stroke="none" 
	d="
M163.884079,82.966789 
	C164.687286,86.676437 165.178802,90.094170 166.163147,93.363510 
	C169.104813,103.133835 161.965363,112.998726 151.801498,112.999939 
	C148.344131,113.000351 144.886765,113.000000 140.949356,113.000000 
	C140.762741,96.443504 151.055450,88.609276 163.884079,82.966789 
z"/>
<path fill="#FFFFFF" opacity="1.000000" stroke="none" 
	d="
M129.929840,143.084290 
	C123.888329,140.707184 117.844299,138.336441 111.806808,135.949127 
	C109.992035,135.231537 108.257408,134.185867 106.379974,133.773560 
	C97.630798,131.852127 94.986137,125.116005 93.298027,116.873695 
	C108.050873,121.931175 119.076454,131.995209 130.248596,142.278320 
	C130.256958,142.707809 129.929840,143.084305 129.929840,143.084290 
z"/>
<path fill="#FFFFFF" opacity="1.000000" stroke="none" 
	d="
M170.372177,142.376968 
	C181.541031,132.286102 192.905991,122.482895 207.704697,117.378448 
	C204.975998,122.780205 205.986481,129.931046 197.568115,132.408218 
	C188.715424,135.013168 180.387985,139.403229 171.289429,142.858749 
	C170.747833,142.704254 170.372177,142.376968 170.372177,142.376968 
z"/>
<path fill="#FFFFFF" opacity="1.000000" stroke="none" 
	d="
M137.884979,129.349396 
	C135.736893,127.486694 133.853455,125.886696 131.970032,124.286705 
	C132.175430,123.968620 132.380829,123.650543 132.586227,123.332458 
	C144.454697,123.332458 156.323166,123.332458 168.137939,123.332458 
	C165.579590,132.555725 150.968094,135.707260 137.884979,129.349396 
z"/>
<path fill="#FFFFFF" opacity="1.000000" stroke="none" 
	d="
M237.944870,160.678436 
	C236.269608,169.794586 234.806061,178.486603 232.923965,187.087021 
	C231.991730,191.347015 230.289169,195.438461 229.178009,198.858505 
	C232.016754,184.057587 234.993469,168.537308 238.144012,152.110718 
	C230.650345,152.110718 224.461182,152.110718 218.272034,152.110718 
	C218.237442,151.559738 218.202850,151.008759 218.168259,150.457779 
	C224.336044,150.457779 230.503815,150.457779 237.960999,150.457779 
	C235.202621,134.757904 232.649445,120.225975 230.080643,105.605156 
	C231.383530,110.137970 232.853836,114.671303 233.968628,119.290436 
	C235.154205,124.202911 236.223450,129.165207 236.937012,134.163773 
	C237.655380,139.195923 237.873947,144.299423 238.374588,150.102707 
	C243.795166,150.102707 249.270279,150.102707 254.745407,150.102707 
	C254.762421,150.609695 254.779434,151.116699 254.796463,151.623688 
	C249.383896,151.623688 243.971344,151.623688 237.983948,151.623688 
	C237.983948,154.993896 237.983948,157.605209 237.944870,160.678436 
z"/>
<path fill="#FFFFFF" opacity="1.000000" stroke="none" 
	d="
M75.896873,152.000000 
	C72.122231,152.000000 68.829521,152.000000 65.267143,152.000000 
	C64.056854,165.414871 67.181343,177.903030 70.269440,190.395004 
	C69.684509,190.477570 69.099579,190.560150 68.514648,190.642715 
	C66.407852,177.967758 64.301056,165.292801 62.060528,151.813263 
	C57.163799,151.813263 51.706261,151.813263 46.248722,151.813263 
	C46.245155,151.312241 46.241589,150.811234 46.238018,150.310211 
	C51.661301,150.310211 57.084587,150.310211 62.778141,150.310211 
	C64.259773,133.830521 65.865700,118.079582 72.787430,103.468567 
	C68.127373,118.449783 64.229340,133.543350 65.163559,150.175964 
	C71.181976,150.175964 76.965942,150.175964 82.749916,150.175964 
	C82.772797,150.675095 82.795677,151.174210 82.818558,151.673340 
	C80.671974,151.782227 78.525391,151.891113 75.896873,152.000000 
z"/>
<path fill="#FFFFFF" opacity="1.000000" stroke="none" 
	d="
M141.018845,116.000000 
	C151.961334,116.153183 162.407532,116.290863 172.851654,116.521996 
	C173.229706,116.530365 173.587418,117.458038 174.209412,118.303719 
	C158.276260,118.303719 142.816849,118.303719 127.357437,118.303719 
	C127.334312,117.586052 127.311188,116.868378 127.288063,116.150711 
	C131.699448,116.100471 136.110825,116.050240 141.018845,116.000000 
z"/>
<path fill="#FFFFFF" opacity="1.000000" stroke="none" 
	d="
M114.350357,114.719284 
	C119.333656,119.966660 124.016693,125.013695 128.699738,130.060730 
	C120.112473,128.098618 111.910431,119.492233 109.044022,110.716377 
	C111.101463,112.279182 112.575783,113.399063 114.350357,114.719284 
z"/>
<path fill="#FFFFFF" opacity="1.000000" stroke="none" 
	d="
M189.021637,118.888733 
	C184.158813,123.309364 179.380051,127.367149 174.601288,131.424942 
	C174.239120,131.033447 173.876968,130.641968 173.514801,130.250488 
	C177.896851,122.479141 184.485336,116.695869 192.118637,111.577362 
	C191.114319,113.893539 190.110001,116.209709 189.021637,118.888733 
z"/>
<path fill="#FFFFFF" opacity="1.000000" stroke="none" 
	d="
M86.216850,89.000000 
	C83.216484,89.404404 80.684021,89.808807 77.995819,90.238075 
	C75.815857,86.693275 70.935387,90.447601 67.581619,88.499329 
	C72.282448,87.999413 76.951027,87.502914 82.032211,86.962540 
	C82.070084,86.981361 83.088783,87.918381 84.120094,87.932472 
	C92.762482,88.050591 101.407181,87.999214 110.051186,87.999031 
	C115.842094,87.998909 121.633003,87.999008 127.423920,87.999008 
	C127.422806,88.332977 127.421692,88.666939 127.420578,89.000908 
	C123.994522,89.000908 120.563957,89.108704 117.143883,88.965668 
	C114.564079,88.857780 113.269302,89.696053 112.755653,92.413605 
	C111.981842,96.507591 110.721008,100.509529 108.824303,104.373741 
	C109.848488,99.504669 110.872673,94.635597 112.058090,89.000000 
	C103.440712,89.000000 95.062729,89.000000 86.216850,89.000000 
z"/>
<path fill="#FFFFFF" opacity="1.000000" stroke="none" 
	d="
M230.648834,88.999374 
	C227.935059,88.999878 225.651016,88.999878 222.788269,88.999878 
	C224.445450,92.721603 225.859329,95.896904 227.510254,99.604607 
	C226.528870,99.282715 226.165543,99.254883 226.136108,99.140884 
	C223.760025,89.933525 217.569977,87.801933 208.785934,88.852028 
	C202.438614,89.610817 195.927567,89.000000 189.489548,89.000000 
	C189.492935,88.504059 189.496323,88.008118 189.499710,87.512177 
	C204.145218,87.512177 218.790726,87.512177 233.436218,87.512177 
	C233.444931,87.910858 233.453644,88.309540 233.462372,88.708221 
	C232.667770,88.805107 231.873184,88.901985 230.648834,88.999374 
z"/>
<path fill="#FFFFFF" opacity="1.000000" stroke="none" 
	d="
M76.572464,214.000381 
	C72.993492,214.000046 69.856087,214.000046 66.718674,214.000046 
	C66.712982,213.705536 66.707291,213.411041 66.701599,213.116531 
	C70.340576,213.116531 73.979553,213.116531 78.186035,213.116531 
	C76.874329,209.899109 75.814865,207.300400 74.755409,204.701675 
	C77.293274,213.681946 84.082535,213.485382 91.344734,213.078568 
	C97.965096,212.707703 104.622597,213.000000 111.280312,214.000000 
	C104.864349,214.000000 98.448387,213.999908 92.032425,214.000031 
	C87.026291,214.000122 82.020164,214.000473 76.572464,214.000381 
z"/>
<path fill="#FFFFFF" opacity="1.000000" stroke="none" 
	d="
M209.938599,214.000000 
	C202.846756,214.000000 196.242981,214.000000 189.639191,214.000000 
	C204.243469,213.112732 218.843201,212.740265 233.447708,214.112869 
	C225.774017,214.075241 218.100342,214.037613 209.938599,214.000000 
z"/>
<path fill="#FFFFFF" opacity="1.000000" stroke="none" 
	d="
M182.694092,213.999954 
	C176.006348,214.000000 169.781799,214.000000 163.557266,214.000000 
	C163.561920,213.755005 163.566559,213.510025 163.571213,213.265030 
	C171.219070,213.265030 178.866928,213.265030 186.514801,213.265030 
	C186.520035,213.425797 186.525284,213.586563 186.530518,213.747314 
	C185.406128,213.831512 184.281723,213.915710 182.694092,213.999954 
z"/>
<path fill="#FFFFFF" opacity="1.000000" stroke="none" 
	d="
M134.530685,213.000427 
	C135.775681,213.075546 136.576096,213.150299 137.376526,213.225052 
	C137.371323,213.387283 137.366119,213.549500 137.360931,213.711731 
	C129.738205,213.711731 122.115471,213.711731 114.492744,213.711731 
	C114.488007,213.474503 114.483269,213.237274 114.478539,213.000046 
	C121.014397,213.000046 127.550262,213.000046 134.530685,213.000427 
z"/>
<path fill="#FFFFFF" opacity="1.000000" stroke="none" 
	d="
M112.628998,209.188202 
	C112.860092,210.147202 112.860092,210.792099 112.860092,211.436996 
	C112.599319,211.492188 112.338547,211.547379 112.077774,211.602554 
	C111.198181,208.199112 110.318588,204.795670 109.438995,201.392227 
	C109.789406,201.294983 110.139809,201.197739 110.490219,201.100494 
	C111.126114,203.691696 111.762009,206.282883 112.628998,209.188202 
z"/>
<path fill="#FFFFFF" opacity="1.000000" stroke="none" 
	d="
M190.060196,208.085388 
	C189.678360,209.622940 189.338501,210.768539 188.998627,211.914124 
	C188.693939,211.827957 188.389236,211.741791 188.084534,211.655624 
	C188.987610,208.180252 189.890671,204.704895 190.793747,201.229523 
	C191.146988,201.316956 191.500229,201.404404 191.853470,201.491837 
	C191.269714,203.559021 190.685944,205.626221 190.060196,208.085388 
z"/>
<path fill="#FFFFFF" opacity="1.000000" stroke="none" 
	d="
M115.262787,218.605469 
	C115.640205,219.667374 115.841225,220.406784 116.042244,221.146194 
	C115.779594,221.238785 115.516945,221.331375 115.254295,221.423950 
	C114.497879,219.460861 113.741463,217.497772 112.985054,215.534683 
	C113.283646,215.408371 113.582237,215.282059 113.880836,215.155762 
	C114.282684,216.198166 114.684540,217.240570 115.262787,218.605469 
z"/>
<path fill="#FFFFFF" opacity="1.000000" stroke="none" 
	d="
M185.749084,88.050995 
	C185.315659,88.442970 184.532837,88.801010 183.750000,89.159058 
	C183.709854,88.907463 183.669693,88.655869 183.629547,88.404274 
	C184.219589,88.275200 184.809647,88.146126 185.749084,88.050995 
z"/>
<path fill="#FFFFFF" opacity="1.000000" stroke="none" 
	d="
M187.680054,86.604980 
	C187.427811,86.399101 187.373215,85.971054 187.318619,85.542999 
	C187.504990,85.822937 187.691360,86.102875 187.680054,86.604980 
z"/>
<path fill="#FFFFFF" opacity="1.000000" stroke="none" 
	d="
M188.881775,90.910110 
	C188.629578,91.113701 188.374283,91.021011 188.118988,90.928314 
	C188.372223,90.823479 188.625458,90.718651 188.881775,90.910110 
z"/>
<path fill="#FFFFFF" opacity="1.000000" stroke="none" 
	d="
M170.909485,142.893799 
	C170.566956,143.314636 170.062775,143.545929 169.558624,143.777222 
	C169.683884,143.418045 169.809143,143.058853 170.153290,142.538315 
	C170.372177,142.376968 170.747833,142.704254 170.909485,142.893799 
z"/>
<path fill="#FFFFFF" opacity="1.000000" stroke="none" 
	d="
M130.447006,142.546326 
	C130.924789,142.836227 131.212524,143.287598 131.500259,143.738953 
	C131.061249,143.695587 130.622238,143.652222 130.056534,143.346588 
	C129.929840,143.084305 130.256958,142.707809 130.447006,142.546326 
z"/>
<path fill="#FFFFFF" opacity="1.000000" stroke="none" 
	d="
M129.543762,132.367706 
	C129.748550,132.836472 129.683990,133.113342 129.619431,133.390198 
	C129.393021,133.324783 129.166595,133.259369 128.940186,133.193954 
	C129.051605,132.854568 129.163010,132.515182 129.543762,132.367706 
z"/>
<path fill="#FFFFFF" opacity="1.000000" stroke="none" 
	d="
M173.215988,131.780991 
	C172.914429,132.211655 172.692245,132.322662 172.470047,132.433685 
	C172.372482,132.176971 172.274918,131.920242 172.177353,131.663513 
	C172.550018,131.596130 172.922684,131.528748 173.215988,131.780991 
z"/>
<path fill="#FFFFFF" opacity="1.000000" stroke="none" 
	d="
M187.698944,215.406677 
	C187.689896,215.907288 187.495590,216.176208 187.301270,216.445129 
	C187.372070,216.021759 187.442886,215.598389 187.698944,215.406677 
z"/>
<path fill="#FFFFFF" opacity="1.000000" stroke="none" 
	d="
M269.120148,196.314728 
	C269.884216,196.101151 270.815582,196.233414 271.897980,196.688553 
	C271.128479,196.894485 270.207977,196.777512 269.120148,196.314728 
z"/>
<path fill="#FFFFFF" opacity="1.000000" stroke="none" 
	d="
M68.450806,58.446396 
	C67.575890,60.018742 66.541756,61.400333 65.507629,62.781921 
	C64.964462,62.236416 64.421303,61.690907 63.878147,61.145401 
	C64.995110,60.099228 66.112068,59.053051 67.575653,57.965019 
	C67.922287,57.923161 68.291595,58.255638 68.450806,58.446396 
z"/>
<path fill="#FFFFFF" opacity="1.000000" stroke="none" 
	d="
M171.395935,27.877071 
	C171.494110,26.061502 171.417374,23.788929 172.403107,23.146488 
	C173.420547,22.483364 175.696091,23.032101 176.971024,23.799057 
	C177.568863,24.158684 177.468246,27.278257 177.065735,27.422606 
	C175.401764,28.019348 173.501266,27.956530 171.395935,27.877071 
z"/>
<path fill="#FFFFFF" opacity="1.000000" stroke="none" 
	d="
M33.117233,208.612488 
	C33.469398,208.754395 33.593624,209.136200 33.717850,209.517990 
	C33.450375,209.555313 33.182892,209.592636 32.915413,209.629959 
	C32.906708,209.370758 32.897999,209.111557 33.117233,208.612488 
z"/>
<path fill="#FFFFFF" opacity="1.000000" stroke="none" 
	d="
M68.909470,243.893799 
	C68.566910,244.314636 68.062721,244.545898 67.558533,244.777176 
	C67.683838,244.417984 67.809135,244.058807 68.153351,243.538269 
	C68.372261,243.376923 68.747849,243.704239 68.909470,243.893799 
z"/>
<path fill="#FFFFFF" opacity="1.000000" stroke="none" 
	d="
M238.893799,237.090515 
	C239.314636,237.433044 239.545929,237.937225 239.777222,238.441391 
	C239.418030,238.316132 239.058853,238.190872 238.538315,237.846710 
	C238.376968,237.627823 238.704254,237.252167 238.893799,237.090515 
z"/>
<path fill="#458BCA" opacity="1.000000" stroke="none" 
	d="
M129.689758,173.702942 
	C130.232849,172.358047 130.575378,171.323608 131.143478,169.607910 
	C133.568909,174.224884 135.631729,178.151596 138.096390,182.843246 
	C139.432251,179.074509 140.430588,176.257950 141.576996,173.023682 
	C142.769562,174.857422 143.788391,176.423996 145.015747,178.311218 
	C146.067505,176.671478 146.903046,175.368866 148.224731,173.308289 
	C149.748581,177.160156 151.026535,180.390442 152.473419,184.047745 
	C154.235382,180.159424 155.833740,176.632141 157.467514,173.026718 
	C161.855453,177.550262 163.398895,183.012878 161.075089,185.982925 
	C159.374619,184.020554 157.962097,181.824036 155.520813,185.670532 
	C153.965271,188.121429 148.972168,185.391342 147.591202,181.365784 
	C146.782303,182.605637 146.010529,183.788605 144.662415,185.854980 
	C143.686249,184.483841 142.971909,183.480453 142.084625,182.234146 
	C141.503723,183.462326 140.966949,184.597183 140.025314,186.588043 
	C138.003738,184.916733 136.260468,183.213745 134.245712,181.940308 
	C133.453964,181.439880 132.054642,181.889786 130.932724,181.927994 
	C130.480240,181.943405 129.919495,182.212616 129.595001,182.031433 
	C125.634102,179.819901 121.704605,177.551926 117.776764,175.281601 
	C117.217354,174.958252 116.734978,174.266724 116.174416,174.216049 
	C109.360260,173.599960 109.358192,173.622864 106.666504,168.396957 
	C106.406090,168.757187 106.167320,168.987015 106.053764,169.267532 
	C105.872124,169.716263 105.773560,170.198639 105.555832,170.961105 
	C104.408684,169.761353 103.413963,168.721008 102.391136,167.651276 
	C102.091515,168.354752 101.756592,169.141113 101.421661,169.927490 
	C100.926125,169.972839 100.430580,170.018173 99.935036,170.063522 
	C99.168625,165.879456 98.402214,161.695374 97.635803,157.511307 
	C98.063942,157.322006 98.492081,157.132690 98.920227,156.943390 
	C100.397446,159.061768 101.874672,161.180145 103.684288,163.775177 
	C103.906380,162.074097 104.074272,160.788208 104.398857,158.302124 
	C107.040070,163.284592 109.206093,167.370651 111.372124,171.456726 
	C111.812027,171.407364 112.251938,171.358002 112.691841,171.308640 
	C112.416130,167.667435 112.140411,164.026245 111.881920,160.612503 
	C114.878937,161.272522 114.344536,161.443970 115.739372,165.791580 
	C116.850761,169.255692 119.472992,172.235092 122.069145,176.484863 
	C121.334229,172.348068 120.804428,169.365845 120.244781,166.215637 
	C125.651665,166.491119 123.329506,171.241806 124.951431,173.560272 
	C125.778625,174.742691 126.318077,176.126419 126.987602,177.419144 
	C127.821465,176.283890 128.655334,175.148651 129.689758,173.702942 
z"/>
<path fill="#458BCA" opacity="1.000000" stroke="none" 
	d="
M165.346283,184.233139 
	C164.992813,180.319046 164.992813,176.252548 164.992813,171.232635 
	C169.962601,173.785172 166.913010,177.077438 168.565704,180.397156 
	C171.244827,176.052109 173.923935,171.707062 176.858948,166.947021 
	C178.006714,169.795502 179.010757,172.287323 180.231705,175.317429 
	C182.474976,170.961929 184.410950,167.203064 186.377151,163.385513 
	C186.970490,164.533005 187.525558,165.606537 188.178329,166.868988 
	C189.568787,164.857559 190.786148,163.096527 192.795837,160.189301 
	C192.795837,164.144928 192.795837,166.685043 192.795837,170.525101 
	C196.056992,165.409348 198.631821,161.370239 201.206650,157.331131 
	C201.731094,157.362061 202.255554,157.392990 202.779999,157.423920 
	C202.779999,161.142120 202.838074,164.863983 202.605667,168.567596 
	C202.594238,168.749680 200.045502,168.772522 198.059769,168.913391 
	C196.235107,170.287292 193.709702,172.188828 190.710892,174.446808 
	C190.264740,172.821732 189.954071,171.690079 189.650650,170.584839 
	C187.608459,171.119614 188.551559,177.008224 184.272079,173.562149 
	C183.413086,175.024704 182.269882,177.853439 181.738205,177.742828 
	C174.891998,176.318512 171.138489,182.316177 165.346283,184.233139 
z"/>
</svg>