<svg version="1.1" id="Layer_1" xmlns="http://www.w3.org/2000/svg" xmlns:xlink="http://www.w3.org/1999/xlink" x="0px" y="0px"
	 width="100%" viewBox="0 0 1169 2560" enable-background="new 0 0 1169 2560" xml:space="preserve">
<path fill="#DB8A2E" opacity="1.000000" stroke="none" 
	d="
M595.000000,2561.000000 
	C581.305298,2561.000000 567.610596,2561.000000 553.210693,2560.772461 
	C548.179626,2558.551270 546.180725,2554.976807 545.242859,2550.454346 
	C534.155396,2496.993652 523.012573,2443.543945 511.885040,2390.091553 
	C504.930389,2356.684082 497.973724,2323.277588 491.029724,2289.867920 
	C490.512848,2287.381104 490.263702,2285.207031 486.636383,2285.075195 
	C477.155792,2284.730713 474.095520,2281.308594 474.068878,2271.694580 
	C474.025452,2256.035889 474.049835,2240.377441 474.076141,2224.718750 
	C474.087402,2218.029297 474.122284,2218.021240 467.310669,2218.024414 
	C319.053558,2218.094238 170.796310,2218.090332 22.539747,2218.409180 
	C12.706085,2218.430176 5.333878,2216.200684 1.000000,2207.000000 
	C1.000000,1712.638672 1.000000,1218.277222 1.313436,723.319031 
	C5.035294,714.960938 10.877599,711.816650 19.427292,711.822876 
	C176.412125,711.936829 333.397064,711.894470 490.381989,711.885132 
	C492.162231,711.885010 493.942444,711.885071 495.951172,711.885071 
	C495.951172,698.552856 495.951172,685.817749 495.951172,672.430054 
	C493.491150,672.430054 491.363281,672.430420 489.235413,672.429993 
	C469.403961,672.425781 449.572083,672.501160 429.741272,672.387085 
	C418.020294,672.319702 411.733307,666.040649 411.716492,654.489685 
	C411.664307,618.659790 411.658508,582.829712 411.721985,546.999878 
	C411.741669,535.880066 418.354584,529.373230 429.487091,529.223999 
	C434.198486,529.160889 438.911469,529.213501 443.623718,529.213501 
	C442.670135,527.516418 441.595215,526.835754 440.501709,526.186523 
	C355.469177,475.699738 307.063538,401.348633 298.537445,302.826996 
	C292.371368,231.576523 312.236816,166.832214 356.224518,110.221390 
	C401.051086,52.530907 459.870117,17.473297 531.889587,4.808008 
	C540.871826,3.228393 549.960571,2.254540 559.000000,1.000003 
	C573.028015,1.000000 587.056091,1.000000 601.749939,1.354575 
	C603.067932,1.834147 603.714905,2.011931 604.372986,2.076618 
	C656.492004,7.199714 703.456177,25.469723 745.744690,56.420826 
	C842.933960,127.553871 883.878357,258.579041 843.996094,372.242340 
	C820.921143,438.005463 779.348999,488.664917 719.386963,524.215820 
	C717.189819,525.518555 715.022888,526.872253 712.841858,528.202148 
	C717.214722,529.179749 721.313660,529.169128 725.412476,529.181702 
	C738.757690,529.222534 744.902344,535.402832 744.908813,548.875793 
	C744.925476,583.539185 744.925903,618.202515 744.908630,652.865906 
	C744.901855,666.481567 739.009827,672.403687 725.402832,672.430054 
	C705.738098,672.468140 686.073242,672.431946 666.408447,672.453308 
	C664.451965,672.455444 662.495544,672.636108 660.390503,672.741333 
	C660.390503,685.929382 660.390503,698.661255 660.390503,711.912354 
	C662.555298,711.912354 664.347290,711.912354 666.139282,711.912354 
	C827.457275,711.912292 988.775330,711.966858 1150.093140,711.776978 
	C1159.816284,711.765503 1166.390137,714.987854 1170.000000,724.000000 
	C1170.000000,1218.027954 1170.000000,1712.056030 1169.690674,2206.694336 
	C1166.122803,2215.149414 1160.404053,2218.341797 1151.779419,2218.330566 
	C994.683411,2218.125000 837.587219,2218.095947 680.491028,2218.042236 
	C678.743591,2218.041748 676.996216,2218.208740 675.229858,2218.298584 
	C675.139587,2220.091309 675.031250,2221.251465 675.030273,2222.411621 
	C675.015320,2239.404053 675.054810,2256.396484 674.992615,2273.388672 
	C674.964233,2281.131592 670.952148,2285.086914 663.297180,2285.176758 
	C661.325745,2285.199951 659.353760,2285.180176 657.096985,2285.180176 
	C653.245117,2303.811523 649.503113,2322.058350 645.697571,2340.291992 
	C631.310242,2409.224854 616.857849,2478.143799 602.585205,2547.100342 
	C601.431335,2552.675049 599.685669,2557.539062 595.000000,2561.000000 
M482.250519,1185.179932 
	C482.386963,1185.289062 482.523376,1185.398193 482.423737,1186.171021 
	C481.754761,1186.911255 481.025726,1187.606079 480.426666,1188.399292 
	C476.266907,1193.906250 477.145477,1197.231323 483.486755,1199.953857 
	C484.550354,1200.410400 485.657867,1200.863892 486.789032,1201.046509 
	C491.608673,1201.824097 494.945648,1204.507080 497.217346,1208.735962 
	C500.760498,1215.331909 504.260040,1221.954224 507.958435,1228.462891 
	C513.742554,1238.642212 518.558411,1240.358276 529.899841,1237.088135 
	C541.036194,1233.876953 549.813354,1227.230835 557.283997,1218.701782 
	C578.438721,1194.550171 593.677185,1166.644165 607.525696,1137.975830 
	C613.358826,1125.900391 611.501770,1113.919922 603.108276,1103.253540 
	C600.641785,1100.118896 597.627747,1097.392334 595.345337,1094.141113 
	C591.742126,1089.008545 587.591431,1083.963379 585.351196,1078.225708 
	C578.048218,1059.521484 573.778503,1040.037842 572.693054,1019.917786 
	C572.522888,1016.762451 572.349426,1013.575073 571.760010,1010.482117 
	C570.867615,1005.799316 568.388855,1004.517700 564.232422,1006.891663 
	C559.623596,1009.523926 555.131958,1012.457581 550.946533,1015.718506 
	C532.650024,1029.973755 511.652710,1035.395264 488.845337,1035.432861 
	C465.751770,1035.470947 443.624603,1030.191162 421.691864,1023.695862 
	C419.682587,1023.100891 417.663849,1022.537964 415.000305,1021.773804 
	C415.000305,1024.851440 414.861908,1027.155029 415.021790,1029.437866 
	C416.562408,1051.435181 416.084351,1073.770264 432.282104,1092.031982 
	C438.194946,1098.698242 436.142426,1107.905029 434.138794,1116.104004 
	C431.454254,1127.089233 428.161163,1137.932251 425.709473,1148.965332 
	C424.036743,1156.492920 427.033203,1160.088989 434.792847,1160.400635 
	C440.428497,1160.626831 446.101074,1160.064819 451.751770,1159.755493 
	C462.602570,1159.161377 464.018738,1160.264282 465.800903,1170.988770 
	C465.855499,1171.317383 465.891663,1171.649048 465.938873,1171.978882 
	C467.923645,1185.845093 465.775940,1185.885742 482.250519,1185.179932 
M419.364258,237.859299 
	C396.711731,323.975159 446.735321,396.705170 496.290314,421.632202 
	C496.290314,413.393066 496.168945,405.441528 496.318787,397.495148 
	C496.543610,385.568878 502.739990,379.302979 514.719116,379.277069 
	C557.049011,379.185577 599.379395,379.186218 641.709167,379.295380 
	C653.978027,379.327057 660.036072,385.717560 660.043518,397.936432 
	C660.048401,405.852905 660.044495,413.769409 660.044495,422.421661 
	C662.163086,421.398010 663.512512,420.876709 664.730652,420.138672 
	C722.553467,385.104797 753.519287,313.459290 739.447754,247.312927 
	C718.669128,149.638153 619.130615,92.519615 524.672485,125.183937 
	C470.585663,143.887573 435.915924,182.210419 419.364258,237.859299 
M734.741272,852.808411 
	C727.427307,832.039124 713.501038,816.837097 694.607483,806.144531 
	C667.807129,790.977051 638.619995,786.441162 608.283875,788.082947 
	C584.357544,789.377747 561.431213,794.485107 541.033569,807.857178 
	C524.062744,818.982788 510.917938,833.994690 498.952423,850.113831 
	C488.936890,863.606018 479.708649,877.728943 469.067078,890.699036 
	C453.286804,909.932068 433.605255,923.847473 408.899841,929.479492 
	C402.588959,930.918152 396.030762,931.253906 389.694244,932.603638 
	C384.165039,933.781433 377.885834,935.171509 377.108551,942.077148 
	C376.329163,949.001648 381.701660,952.458923 387.159210,954.836182 
	C396.617432,958.956177 406.171539,962.908325 415.876465,966.399719 
	C442.131317,975.844849 468.938873,983.039734 496.938568,984.885193 
	C523.914978,986.663147 548.284729,981.123291 567.282349,960.073425 
	C569.559204,957.550476 572.709778,955.623596 575.775574,954.040405 
	C585.653259,948.939575 600.555115,953.767639 604.681396,964.039429 
	C607.049194,969.933594 608.101440,976.553772 608.641174,982.940430 
	C609.551636,993.716064 609.304260,1004.585083 610.046875,1015.380249 
	C611.419434,1035.333008 616.601868,1053.833740 632.245789,1067.755615 
	C645.621948,1079.659424 660.359375,1089.597290 676.397705,1097.581055 
	C698.190430,1108.429199 721.561401,1114.456787 745.100647,1119.915039 
	C754.493408,1122.092896 763.903625,1124.406372 773.435791,1125.704102 
	C780.836182,1126.711548 783.673706,1122.909912 780.729919,1116.054199 
	C776.934326,1107.214722 772.620911,1098.516968 767.692505,1090.258301 
	C747.240051,1055.984741 737.411865,1019.049316 739.110352,979.152039 
	C739.939026,959.685730 741.268433,940.240601 742.092224,920.774109 
	C743.054443,898.037292 741.933228,875.476318 734.741272,852.808411 
M125.763153,1415.272705 
	C79.764809,1462.695557 78.334702,1533.766235 122.650459,1581.937500 
	C146.358383,1607.708008 176.333755,1622.394531 210.112427,1630.002075 
	C211.967773,1630.420044 213.824997,1630.829712 215.652985,1631.236816 
	C214.164780,1638.769043 211.764572,1642.437500 206.074371,1644.190796 
	C201.653259,1645.552979 200.561722,1647.773560 202.162888,1651.922119 
	C238.457748,1651.922119 274.709717,1651.922119 311.011932,1651.922119 
	C312.055756,1648.201416 311.710327,1645.965820 307.504303,1644.657349 
	C300.786041,1642.567505 297.358582,1637.170776 297.424286,1630.202148 
	C299.597260,1629.632080 301.826721,1629.014893 304.072266,1628.463257 
	C327.325989,1622.748657 348.638580,1612.967285 367.778656,1598.466553 
	C411.810883,1565.107056 429.653046,1509.795044 412.223907,1458.165527 
	C400.281647,1422.789673 375.290863,1398.838135 342.065674,1383.517090 
	C327.672272,1376.879761 312.149841,1372.690796 296.552582,1367.182129 
	C297.493042,1362.046753 299.516113,1356.261963 306.216064,1354.070557 
	C310.450378,1352.685791 310.580627,1350.340088 309.246185,1346.413696 
	C307.539093,1346.413696 305.743347,1346.393555 303.948181,1346.416992 
	C294.118530,1346.545776 284.288666,1346.821533 274.459595,1346.793579 
	C251.968628,1346.729614 229.478088,1346.472046 206.987396,1346.471436 
	C205.459366,1346.471313 202.672592,1347.943237 202.664703,1348.752075 
	C202.648193,1350.446777 203.756821,1353.307129 204.995422,1353.670410 
	C212.557495,1355.888062 215.132935,1361.613892 216.769119,1368.997681 
	C182.391022,1376.061401 151.362320,1389.630737 125.763153,1415.272705 
M461.201385,1571.296753 
	C472.092163,1592.773560 487.158203,1610.822998 506.577789,1624.990356 
	C545.941040,1653.707275 590.082336,1663.011108 637.780823,1655.319092 
	C680.509644,1648.428467 715.890625,1628.337769 742.039673,1593.417847 
	C764.676758,1563.187744 774.524353,1528.715332 772.902161,1491.206055 
	C770.448792,1434.478271 745.425842,1390.803223 695.488037,1362.702148 
	C664.168579,1345.078003 630.051147,1339.754517 594.555115,1342.996338 
	C553.503357,1346.745605 517.278259,1361.785156 488.317505,1391.651733 
	C442.495850,1438.906372 431.640442,1511.522217 461.201385,1571.296753 
M967.669922,1652.185059 
	C1005.271790,1652.185059 1042.873657,1652.185059 1081.994263,1652.185059 
	C1080.638916,1649.101440 1080.215088,1645.803955 1078.807373,1645.309814 
	C1069.076050,1641.893921 1061.976318,1635.022339 1055.669312,1627.552979 
	C1017.217163,1582.014771 979.050232,1536.235962 940.682617,1490.626099 
	C938.428223,1487.946167 939.275818,1486.467896 941.155518,1484.359375 
	C949.906982,1474.542358 958.524963,1464.606689 967.241089,1454.758057 
	C992.945251,1425.714355 1018.518738,1396.552002 1044.528564,1367.784424 
	C1049.441406,1362.350708 1055.786743,1357.947510 1062.130127,1354.177734 
	C1065.554688,1352.142700 1066.924072,1350.708618 1065.342285,1346.737061 
	C1028.572754,1346.737061 991.684814,1346.737061 953.671875,1346.737061 
	C954.430908,1349.213501 954.425903,1351.893066 955.745728,1353.017578 
	C960.443665,1357.020508 961.501160,1358.783447 958.560120,1364.269653 
	C954.876465,1371.140625 950.990417,1378.042236 946.205505,1384.159180 
	C926.820679,1408.940796 907.060791,1433.429199 887.430481,1458.018677 
	C884.293091,1461.948608 881.110596,1465.842651 877.160767,1470.728271 
	C876.828308,1468.154175 876.561157,1467.068237 876.566589,1465.983643 
	C876.683411,1442.656860 876.607056,1419.325684 877.081299,1396.005737 
	C877.273499,1386.553223 878.402039,1377.089600 879.618286,1367.697510 
	C880.607239,1360.060547 884.227112,1354.126465 892.773071,1352.850830 
	C892.773071,1350.728516 892.773071,1348.944580 892.773071,1346.428955 
	C889.621582,1346.428955 886.677124,1346.415894 883.732788,1346.431152 
	C860.408142,1346.552368 837.083557,1346.722778 813.758728,1346.779785 
	C805.764648,1346.799316 797.768860,1346.437378 789.776611,1346.518433 
	C788.599548,1346.530273 786.592468,1347.923950 786.464600,1348.878540 
	C786.267212,1350.352051 787.062683,1353.165527 787.952576,1353.393066 
	C798.044006,1355.971924 800.264648,1364.115479 801.105713,1372.542847 
	C802.410278,1385.614624 803.495605,1398.771484 803.535767,1411.895630 
	C803.717834,1471.378784 803.713379,1530.864746 803.268005,1590.345947 
	C803.164978,1604.100098 801.371826,1617.876221 799.738342,1631.568359 
	C799.026794,1637.532471 795.878601,1642.810059 789.407349,1644.424927 
	C784.861206,1645.559448 784.642273,1648.105469 785.692322,1651.830688 
	C822.102478,1651.830688 858.328796,1651.830688 894.442322,1651.830688 
	C895.674377,1648.054077 895.010132,1645.892456 891.066833,1644.901489 
	C885.568542,1643.519653 882.239014,1639.458740 880.954163,1634.166992 
	C879.547546,1628.373535 878.074280,1622.427002 877.950195,1616.519531 
	C877.271973,1584.211060 876.996216,1551.894165 876.608582,1519.579834 
	C876.599854,1518.852173 876.904053,1518.120728 877.196960,1516.769775 
	C878.378540,1517.850098 879.171936,1518.386475 879.723938,1519.107544 
	C904.109070,1550.960938 928.576904,1582.752197 952.753723,1614.763062 
	C957.743103,1621.369141 961.855652,1628.678589 965.941956,1635.907104 
	C967.830078,1639.247070 968.963623,1643.051636 964.190002,1645.823364 
	C963.182434,1646.408203 962.983032,1649.086548 963.185791,1650.703125 
	C963.264893,1651.334229 965.478943,1651.697510 967.669922,1652.185059 
M765.722351,1856.194092 
	C761.109558,1858.113037 756.425903,1859.879028 751.896790,1861.978516 
	C736.093018,1869.303711 720.823792,1877.649048 709.222168,1890.961060 
	C692.151123,1910.548828 686.028076,1933.799561 686.888184,1959.521118 
	C687.142578,1967.128784 685.692993,1975.210571 683.148071,1982.412109 
	C676.906677,2000.073608 664.289978,2013.174194 649.904053,2024.642822 
	C630.793762,2039.877686 608.224426,2048.114990 585.505981,2055.842285 
	C531.935913,2074.062988 476.736847,2085.857422 421.386108,2097.062256 
	C409.004822,2099.568359 396.734344,2102.795654 384.640045,2106.444336 
	C380.836365,2107.591797 375.417816,2110.710693 374.783203,2113.767334 
	C372.077545,2126.798828 373.153320,2138.645264 390.298279,2139.674072 
	C399.675720,2140.236572 409.370819,2139.615967 418.599762,2137.845459 
	C463.255066,2129.279541 507.440918,2118.669678 551.109253,2105.936279 
	C592.830688,2093.770996 633.173889,2078.470459 670.287964,2055.386230 
	C679.998535,2049.346436 689.958557,2043.270264 700.569580,2039.213013 
	C718.882690,2032.210815 738.468750,2031.533325 757.783264,2032.618774 
	C802.087402,2035.108643 838.654602,2018.408813 870.506836,1989.122559 
	C875.553223,1984.482910 874.885925,1979.801636 868.642334,1977.062256 
	C860.418396,1973.453613 852.136536,1969.905273 843.665466,1966.943604 
	C804.675354,1953.311157 770.518433,1960.671997 740.924377,1990.053101 
	C734.962646,1995.972046 726.757629,1999.805176 719.187744,2003.853516 
	C715.665527,2005.737305 711.225342,2006.328125 707.136108,2006.634399 
	C700.024170,2007.167236 696.868225,2002.457031 700.725098,1996.585815 
	C703.363831,1992.568848 707.196411,1988.906006 711.282227,1986.335938 
	C756.840332,1957.679688 774.746277,1914.662354 775.875488,1862.862305 
	C776.014954,1856.466431 772.964905,1854.450684 765.722351,1856.194092 
M477.512939,1978.680420 
	C477.568756,1972.701172 477.374023,1966.707153 477.722626,1960.744995 
	C479.480652,1930.676880 471.297150,1904.298462 448.390625,1883.828491 
	C433.927612,1870.904053 416.538818,1862.739868 398.516846,1855.985962 
	C392.732941,1853.818359 388.923065,1856.588257 389.031158,1862.798462 
	C389.135315,1868.784912 389.446777,1874.789551 390.084808,1880.741455 
	C394.970306,1926.318115 415.073883,1962.648438 454.857056,1986.987915 
	C457.107269,1988.364624 459.288330,1990.019775 461.084015,1991.936646 
	C464.053192,1995.105713 467.432678,1998.787354 465.115204,2003.369019 
	C462.694397,2008.154785 457.730591,2007.051880 453.510559,2006.208374 
	C441.008148,2003.709351 430.809479,1997.001709 421.813110,1988.261475 
	C403.109589,1970.090332 381.187439,1959.238770 354.672302,1960.287842 
	C333.517944,1961.124756 314.007294,1968.549683 295.141510,1977.626831 
	C290.271088,1979.970215 289.622803,1984.473755 293.602814,1988.225708 
	C298.679810,1993.011719 303.971863,1997.634277 309.567505,2001.794189 
	C333.442688,2019.543091 359.614532,2031.542969 389.906830,2032.458374 
	C403.551819,2032.870850 417.229065,2032.436523 430.858612,2033.083374 
	C448.301422,2033.911133 465.187378,2037.164673 480.529022,2046.379883 
	C483.956512,2048.438721 488.479492,2050.230225 492.263580,2049.844482 
	C503.301575,2048.718994 514.301453,2046.799927 525.152161,2044.437866 
	C530.425110,2043.290039 531.778748,2037.747314 528.577576,2033.267212 
	C527.440186,2031.675415 525.799622,2030.414062 524.281860,2029.128052 
	C512.603638,2019.232910 500.720886,2009.569580 489.276520,1999.411865 
	C483.375336,1994.174072 478.888733,1987.698608 477.512939,1978.680420 
M708.416992,1218.909790 
	C721.090210,1205.270752 733.111145,1191.142334 742.633606,1174.123047 
	C708.334778,1165.628052 675.168457,1156.050415 643.926025,1140.518921 
	C642.962219,1142.358765 642.206909,1143.638428 641.599304,1144.984619 
	C631.236938,1167.943115 619.337036,1190.070435 605.430847,1211.076172 
	C603.261658,1214.352661 603.469849,1216.351440 606.050049,1219.192505 
	C619.707642,1234.230835 633.288391,1249.343750 646.611084,1264.678101 
	C649.736450,1268.275269 651.910217,1268.239502 655.597412,1265.652466 
	C674.781128,1252.192017 691.665344,1236.172485 708.416992,1218.909790 
M268.693298,919.192139 
	C254.999435,931.017395 243.105484,944.417236 233.508408,959.779480 
	C217.250519,985.803894 217.892212,1013.788452 224.309662,1042.329102 
	C225.331848,1046.875122 229.059860,1048.325073 233.309265,1046.946167 
	C238.835403,1045.152832 244.409943,1043.287354 249.601349,1040.720337 
	C278.832489,1026.265747 298.814178,1003.933594 305.620636,971.540588 
	C310.176575,949.858154 307.567688,928.083374 303.310638,906.566956 
	C302.133575,900.617737 297.026154,898.744751 291.818451,902.300537 
	C284.132721,907.548340 276.739899,913.225220 268.693298,919.192139 
M857.225525,944.596802 
	C854.513367,998.669067 890.123108,1032.452515 925.387390,1044.998657 
	C937.911621,1049.454468 939.840820,1048.263672 942.241455,1035.027954 
	C942.360107,1034.373657 942.548340,1033.731445 942.656799,1033.075806 
	C946.138916,1012.023010 946.671387,990.965759 937.382874,971.275818 
	C923.246704,941.310181 900.056763,919.347046 872.401245,901.845825 
	C867.242859,898.581482 862.155762,901.380249 861.292664,907.918091 
	C859.724915,919.794250 858.577942,931.725952 857.225525,944.596802 
M870.129883,1732.880249 
	C867.918884,1733.425415 865.345154,1733.422241 863.556030,1734.605347 
	C852.335632,1742.026245 840.768982,1749.058594 830.282593,1757.429443 
	C796.510071,1784.388184 791.241882,1829.312622 805.440979,1863.962036 
	C808.031311,1870.282959 811.041687,1871.322998 817.136292,1868.219482 
	C819.211548,1867.162598 821.278381,1866.076416 823.275024,1864.880127 
	C841.275330,1854.095337 857.351074,1841.193237 865.543640,1821.181885 
	C876.448792,1794.544800 878.828186,1766.711060 874.844421,1738.323364 
	C874.579163,1736.433228 872.275818,1734.828979 870.129883,1732.880249 
M187.222656,1810.268066 
	C210.325439,1830.430664 237.650513,1833.406372 266.567688,1829.610840 
	C272.192108,1828.872437 274.105621,1826.048828 272.772003,1820.464966 
	C271.461945,1814.979858 269.911896,1809.480469 267.760803,1804.279541 
	C257.274719,1778.926147 239.887772,1760.128662 213.745209,1750.836304 
	C192.898636,1743.426147 171.162857,1744.012695 149.505798,1746.537476 
	C143.525146,1747.234741 141.617523,1751.270874 144.377380,1756.660034 
	C154.900208,1777.208252 168.893356,1795.025146 187.222656,1810.268066 
M1016.510559,1746.626831 
	C1005.048645,1746.149414 993.572754,1745.047119 982.127136,1745.302612 
	C932.378967,1746.412964 904.055786,1779.369873 893.900391,1813.557495 
	C889.805664,1827.342163 890.878723,1829.222046 905.193054,1830.467407 
	C926.989258,1832.363647 948.340149,1830.540161 967.127991,1818.042847 
	C990.338501,1802.603882 1007.583801,1781.676514 1020.393433,1757.036743 
	C1023.003906,1752.015381 1022.201538,1749.849609 1016.510559,1746.626831 
M288.297089,1756.765869 
	C288.480560,1762.924683 288.382233,1769.107300 288.900604,1775.237793 
	C290.425781,1793.275757 293.458374,1811.093750 302.260681,1827.138184 
	C312.990356,1846.695679 330.235016,1859.361206 349.785675,1869.138672 
	C353.911255,1871.201904 357.270294,1869.564453 359.197815,1864.681396 
	C370.557007,1835.903931 370.097595,1807.489868 354.516205,1780.453003 
	C341.735413,1758.275635 320.682831,1745.101807 298.820374,1733.321167 
	C294.799225,1731.154419 290.713287,1733.733276 290.058258,1738.428955 
	C289.253845,1744.195801 288.893372,1750.024536 288.297089,1756.765869 
M247.576401,1858.997192 
	C234.129761,1861.134888 220.626114,1862.974854 207.260574,1865.535767 
	C200.582916,1866.815308 198.811264,1871.454712 202.448410,1876.500977 
	C218.587936,1898.894531 238.683502,1916.898438 263.644287,1928.798096 
	C286.057312,1939.483276 309.328491,1937.206665 332.449158,1930.894409 
	C340.558075,1928.680542 341.481934,1926.061035 338.289001,1918.059692 
	C325.312164,1885.541260 291.439270,1856.032227 247.576401,1858.997192 
M861.754089,1874.223389 
	C844.976501,1885.874512 833.106812,1901.351196 825.848389,1920.396118 
	C823.962158,1925.345093 825.087280,1928.581299 829.679077,1929.970581 
	C849.409851,1935.940308 869.580078,1939.188477 889.652710,1932.898438 
	C920.952698,1923.090332 943.748535,1901.724854 962.765259,1875.902832 
	C965.951416,1871.576294 964.210266,1867.377441 958.962952,1865.936768 
	C952.556091,1864.177734 946.053772,1862.683472 939.515747,1861.499634 
	C912.378784,1856.586426 886.073425,1857.199829 861.754089,1874.223389 
M73.555733,1090.973022 
	C71.665428,1115.736206 74.226845,1139.989624 84.050003,1162.898071 
	C93.610260,1185.193359 112.154396,1198.660034 133.116928,1209.155273 
	C137.366196,1211.282837 140.785233,1209.956421 142.085373,1205.114136 
	C144.959824,1194.408813 148.801834,1183.562866 149.201523,1172.662476 
	C150.956558,1124.797363 124.060692,1099.223022 82.600906,1077.748535 
	C79.095215,1075.932739 75.642258,1078.135986 74.680992,1082.159302 
	C74.066063,1084.732910 73.954323,1087.427002 73.555733,1090.973022 
M828.677979,1088.785034 
	C833.002747,1094.895630 837.172668,1101.122925 841.679871,1107.095825 
	C858.534180,1129.431885 880.039734,1143.740845 908.698425,1145.653442 
	C925.371582,1146.766113 941.190613,1143.539062 956.271301,1136.546021 
	C959.928528,1134.850220 962.536316,1131.926147 960.219727,1127.741577 
	C950.045410,1109.362305 937.427490,1092.750366 918.005005,1083.736206 
	C889.998596,1070.738159 860.277710,1070.298462 830.355835,1075.558228 
	C828.363770,1075.908447 825.944763,1079.190674 825.514099,1081.450317 
	C825.135498,1083.436768 827.268250,1085.901978 828.677979,1088.785034 
M1017.441956,1188.000732 
	C1019.276428,1193.865845 1020.854553,1199.828247 1023.028259,1205.564697 
	C1024.701416,1209.980347 1028.078979,1211.181152 1032.306396,1209.020752 
	C1048.324097,1200.835815 1063.428711,1191.092285 1073.408569,1175.804443 
	C1092.047974,1147.251343 1093.886353,1115.261841 1090.366577,1082.525635 
	C1089.862915,1077.840820 1085.622803,1075.873657 1081.306274,1078.151855 
	C1062.636475,1088.005615 1044.800781,1099.255493 1032.076782,1116.485962 
	C1016.491089,1137.591919 1012.485168,1161.570068 1017.441956,1188.000732 
M232.159561,1184.644043 
	C227.132370,1186.389893 222.090042,1188.093628 217.080475,1189.888550 
	C184.760025,1201.469604 166.792053,1225.619629 157.886887,1257.646362 
	C156.488861,1262.674194 158.003983,1265.409790 163.026398,1266.509766 
	C167.563141,1267.503296 172.202728,1268.353882 176.828598,1268.561035 
	C207.815704,1269.948120 234.217087,1260.241821 253.757629,1235.335938 
	C265.101501,1220.877441 271.858795,1203.993286 277.343292,1186.613281 
	C279.112549,1181.006470 276.204498,1177.135254 270.221802,1177.970947 
	C257.730103,1179.715576 245.338333,1182.175903 232.159561,1184.644043 
M207.355606,1122.894043 
	C206.949890,1123.620483 206.541214,1124.345337 206.138947,1125.073608 
	C202.465408,1131.724487 203.306427,1134.245483 210.426498,1137.276855 
	C213.940826,1138.772949 217.482605,1140.283936 221.138962,1141.354492 
	C250.315399,1149.898804 277.860931,1147.075195 302.513947,1128.294434 
	C317.528992,1116.855957 328.447205,1101.687378 338.072571,1085.622437 
	C341.305786,1080.226196 339.498199,1076.173462 333.170563,1075.223389 
	C324.962982,1073.991333 316.669586,1073.009521 308.383270,1072.687500 
	C289.087158,1071.937866 270.035645,1074.145508 252.033066,1081.287964 
	C232.173569,1089.166992 218.868927,1104.664429 207.355606,1122.894043 
M968.966248,1200.541870 
	C946.429382,1186.922852 921.921082,1179.655884 895.722229,1177.938354 
	C888.098206,1177.438477 885.500977,1180.771240 888.067139,1188.065918 
	C890.880005,1196.062012 893.836121,1204.035889 897.268738,1211.780640 
	C908.346680,1236.775024 925.445801,1255.541382 952.242188,1264.156982 
	C968.311096,1269.323364 984.574524,1270.140991 1001.064453,1266.879395 
	C1006.473022,1265.809692 1008.494324,1263.250854 1007.192322,1258.596313 
	C1000.718506,1235.453613 990.219360,1214.867554 968.966248,1200.541870 
M159.571136,1087.942627 
	C161.077972,1089.251221 162.531189,1090.628540 164.101807,1091.855591 
	C168.577194,1095.351807 171.483109,1095.245361 174.668030,1090.723755 
	C193.119614,1064.529297 198.747406,1035.989380 187.877060,1005.513306 
	C180.231613,984.078613 164.478180,968.186829 147.825256,953.359558 
	C144.007187,949.960083 139.619339,951.475586 137.645386,956.711487 
	C127.833847,982.736633 123.755943,1009.599365 128.434967,1037.147827 
	C131.926056,1057.702148 144.293777,1073.448853 159.571136,1087.942627 
M1037.188599,1033.662354 
	C1040.236328,1007.361389 1036.787476,981.875793 1027.425903,957.172302 
	C1025.049316,950.901123 1020.679504,949.756897 1016.011230,954.347473 
	C1008.663452,961.572998 1001.276062,968.813660 994.549194,976.603760 
	C979.323914,994.235535 970.814941,1014.461060 971.852478,1038.238525 
	C972.690369,1057.442261 978.811218,1074.712646 989.898193,1090.287842 
	C993.038086,1094.698853 996.405396,1095.569458 999.981628,1092.533569 
	C1018.263367,1077.013916 1032.811523,1059.035400 1037.188599,1033.662354 
M695.518005,2087.838867 
	C690.744812,2089.084717 685.697632,2089.718750 681.257446,2091.707764 
	C672.916626,2095.444580 664.968323,2100.048096 656.769409,2104.114990 
	C653.543396,2105.715088 650.925964,2107.658447 651.237122,2111.554688 
	C651.570618,2115.730713 654.669800,2117.265869 658.346924,2118.094238 
	C687.734558,2124.712402 717.015747,2131.861328 746.550903,2137.734863 
	C756.970581,2139.806641 768.018372,2139.262451 778.755005,2138.980713 
	C784.606873,2138.827148 788.802063,2134.799072 790.552185,2128.947998 
	C794.262207,2116.544678 791.009766,2110.126709 778.842957,2105.739990 
	C776.340332,2104.837891 773.800415,2103.978271 771.212402,2103.383301 
	C758.883667,2100.549316 746.565186,2097.655029 734.179932,2095.087158 
	C721.638245,2092.487305 709.022583,2090.244385 695.518005,2087.838867 
z"/>
<path fill="#FFFFFF" opacity="1.000000" stroke="none" 
	d="
M1170.000000,723.531372 
	C1166.390137,714.987854 1159.816284,711.765503 1150.093140,711.776978 
	C988.775330,711.966858 827.457275,711.912292 666.139282,711.912354 
	C664.347290,711.912354 662.555298,711.912354 660.390503,711.912354 
	C660.390503,698.661255 660.390503,685.929382 660.390503,672.741333 
	C662.495544,672.636108 664.451965,672.455444 666.408447,672.453308 
	C686.073242,672.431946 705.738098,672.468140 725.402832,672.430054 
	C739.009827,672.403687 744.901855,666.481567 744.908630,652.865906 
	C744.925903,618.202515 744.925476,583.539185 744.908813,548.875793 
	C744.902344,535.402832 738.757690,529.222534 725.412476,529.181702 
	C721.313660,529.169128 717.214722,529.179749 712.841858,528.202148 
	C715.022888,526.872253 717.189819,525.518555 719.386963,524.215820 
	C779.348999,488.664917 820.921143,438.005463 843.996094,372.242340 
	C883.878357,258.579041 842.933960,127.553871 745.744690,56.420826 
	C703.456177,25.469723 656.492004,7.199714 604.372986,2.076618 
	C603.714905,2.011931 603.067932,1.834147 602.207886,1.354575 
	C791.269165,1.000000 980.538330,1.000000 1170.000000,1.000000 
	C1170.000000,241.687531 1170.000000,482.375092 1170.000000,723.531372 
z"/>
<path fill="#FFFFFF" opacity="1.000000" stroke="none" 
	d="
M558.531372,1.000003 
	C549.960571,2.254540 540.871826,3.228393 531.889587,4.808008 
	C459.870117,17.473297 401.051086,52.530907 356.224518,110.221390 
	C312.236816,166.832214 292.371368,231.576523 298.537445,302.826996 
	C307.063538,401.348633 355.469177,475.699738 440.501709,526.186523 
	C441.595215,526.835754 442.670135,527.516418 443.623718,529.213501 
	C438.911469,529.213501 434.198486,529.160889 429.487091,529.223999 
	C418.354584,529.373230 411.741669,535.880066 411.721985,546.999878 
	C411.658508,582.829712 411.664307,618.659790 411.716492,654.489685 
	C411.733307,666.040649 418.020294,672.319702 429.741272,672.387085 
	C449.572083,672.501160 469.403961,672.425781 489.235413,672.429993 
	C491.363281,672.430420 493.491150,672.430054 495.951172,672.430054 
	C495.951172,685.817749 495.951172,698.552856 495.951172,711.885071 
	C493.942444,711.885071 492.162231,711.885010 490.381989,711.885132 
	C333.397064,711.894470 176.412125,711.936829 19.427292,711.822876 
	C10.877599,711.816650 5.035294,714.960938 1.313436,722.861084 
	C1.000000,482.415558 1.000000,241.831146 1.000000,1.000000 
	C186.687485,1.000000 372.375092,1.000000 558.531372,1.000003 
z"/>
<path fill="#FFFFFF" opacity="1.000000" stroke="none" 
	d="
M595.468628,2561.000000 
	C599.685669,2557.539062 601.431335,2552.675049 602.585205,2547.100342 
	C616.857849,2478.143799 631.310242,2409.224854 645.697571,2340.291992 
	C649.503113,2322.058350 653.245117,2303.811523 657.096985,2285.180176 
	C659.353760,2285.180176 661.325745,2285.199951 663.297180,2285.176758 
	C670.952148,2285.086914 674.964233,2281.131592 674.992615,2273.388672 
	C675.054810,2256.396484 675.015320,2239.404053 675.030273,2222.411621 
	C675.031250,2221.251465 675.139587,2220.091309 675.229858,2218.298584 
	C676.996216,2218.208740 678.743591,2218.041748 680.491028,2218.042236 
	C837.587219,2218.095947 994.683411,2218.125000 1151.779419,2218.330566 
	C1160.404053,2218.341797 1166.122803,2215.149414 1169.690674,2207.152344 
	C1170.000000,2324.944336 1170.000000,2442.888916 1170.000000,2561.000000 
	C978.645813,2561.000000 787.291565,2561.000000 595.468628,2561.000000 
z"/>
<path fill="#FFFFFF" opacity="1.000000" stroke="none" 
	d="
M1.000000,2207.468750 
	C5.333878,2216.200684 12.706085,2218.430176 22.539747,2218.409180 
	C170.796310,2218.090332 319.053558,2218.094238 467.310669,2218.024414 
	C474.122284,2218.021240 474.087402,2218.029297 474.076141,2224.718750 
	C474.049835,2240.377441 474.025452,2256.035889 474.068878,2271.694580 
	C474.095520,2281.308594 477.155792,2284.730713 486.636383,2285.075195 
	C490.263702,2285.207031 490.512848,2287.381104 491.029724,2289.867920 
	C497.973724,2323.277588 504.930389,2356.684082 511.885040,2390.091553 
	C523.012573,2443.543945 534.155396,2496.993652 545.242859,2550.454346 
	C546.180725,2554.976807 548.179626,2558.551270 552.752686,2560.772461 
	C369.088898,2561.000000 185.177826,2561.000000 1.000000,2561.000000 
	C1.000000,2443.312744 1.000000,2325.625000 1.000000,2207.468750 
z"/>
<path fill="#FFFFFE" opacity="1.000000" stroke="none" 
	d="
M419.481964,237.468842 
	C435.915924,182.210419 470.585663,143.887573 524.672485,125.183937 
	C619.130615,92.519615 718.669128,149.638153 739.447754,247.312927 
	C753.519287,313.459290 722.553467,385.104797 664.730652,420.138672 
	C663.512512,420.876709 662.163086,421.398010 660.044495,422.421661 
	C660.044495,413.769409 660.048401,405.852905 660.043518,397.936432 
	C660.036072,385.717560 653.978027,379.327057 641.709167,379.295380 
	C599.379395,379.186218 557.049011,379.185577 514.719116,379.277069 
	C502.739990,379.302979 496.543610,385.568878 496.318787,397.495148 
	C496.168945,405.441528 496.290314,413.393066 496.290314,421.632202 
	C446.735321,396.705170 396.711731,323.975159 419.481964,237.468842 
z"/>
<path fill="#FFFEFE" opacity="1.000000" stroke="none" 
	d="
M734.870972,853.179932 
	C741.933228,875.476318 743.054443,898.037292 742.092224,920.774109 
	C741.268433,940.240601 739.939026,959.685730 739.110352,979.152039 
	C737.411865,1019.049316 747.240051,1055.984741 767.692505,1090.258301 
	C772.620911,1098.516968 776.934326,1107.214722 780.729919,1116.054199 
	C783.673706,1122.909912 780.836182,1126.711548 773.435791,1125.704102 
	C763.903625,1124.406372 754.493408,1122.092896 745.100647,1119.915039 
	C721.561401,1114.456787 698.190430,1108.429199 676.397705,1097.581055 
	C660.359375,1089.597290 645.621948,1079.659424 632.245789,1067.755615 
	C616.601868,1053.833740 611.419434,1035.333008 610.046875,1015.380249 
	C609.304260,1004.585083 609.551636,993.716064 608.641174,982.940430 
	C608.101440,976.553772 607.049194,969.933594 604.681396,964.039429 
	C600.555115,953.767639 585.653259,948.939575 575.775574,954.040405 
	C572.709778,955.623596 569.559204,957.550476 567.282349,960.073425 
	C548.284729,981.123291 523.914978,986.663147 496.938568,984.885193 
	C468.938873,983.039734 442.131317,975.844849 415.876465,966.399719 
	C406.171539,962.908325 396.617432,958.956177 387.159210,954.836182 
	C381.701660,952.458923 376.329163,949.001648 377.108551,942.077148 
	C377.885834,935.171509 384.165039,933.781433 389.694244,932.603638 
	C396.030762,931.253906 402.588959,930.918152 408.899841,929.479492 
	C433.605255,923.847473 453.286804,909.932068 469.067078,890.699036 
	C479.708649,877.728943 488.936890,863.606018 498.952423,850.113831 
	C510.917938,833.994690 524.062744,818.982788 541.033569,807.857178 
	C561.431213,794.485107 584.357544,789.377747 608.283875,788.082947 
	C638.619995,786.441162 667.807129,790.977051 694.607483,806.144531 
	C713.501038,816.837097 727.427307,832.039124 734.870972,853.179932 
z"/>
<path fill="#FFFEFD" opacity="1.000000" stroke="none" 
	d="
M126.014603,1415.015625 
	C151.362320,1389.630737 182.391022,1376.061401 216.769119,1368.997681 
	C215.132935,1361.613892 212.557495,1355.888062 204.995422,1353.670410 
	C203.756821,1353.307129 202.648193,1350.446777 202.664703,1348.752075 
	C202.672592,1347.943237 205.459366,1346.471313 206.987396,1346.471436 
	C229.478088,1346.472046 251.968628,1346.729614 274.459595,1346.793579 
	C284.288666,1346.821533 294.118530,1346.545776 303.948181,1346.416992 
	C305.743347,1346.393555 307.539093,1346.413696 309.246185,1346.413696 
	C310.580627,1350.340088 310.450378,1352.685791 306.216064,1354.070557 
	C299.516113,1356.261963 297.493042,1362.046753 296.552582,1367.182129 
	C312.149841,1372.690796 327.672272,1376.879761 342.065674,1383.517090 
	C375.290863,1398.838135 400.281647,1422.789673 412.223907,1458.165527 
	C429.653046,1509.795044 411.810883,1565.107056 367.778656,1598.466553 
	C348.638580,1612.967285 327.325989,1622.748657 304.072266,1628.463257 
	C301.826721,1629.014893 299.597260,1629.632080 297.424286,1630.202148 
	C297.358582,1637.170776 300.786041,1642.567505 307.504303,1644.657349 
	C311.710327,1645.965820 312.055756,1648.201416 311.011932,1651.922119 
	C274.709717,1651.922119 238.457748,1651.922119 202.162888,1651.922119 
	C200.561722,1647.773560 201.653259,1645.552979 206.074371,1644.190796 
	C211.764572,1642.437500 214.164780,1638.769043 215.652985,1631.236816 
	C213.824997,1630.829712 211.967773,1630.420044 210.112427,1630.002075 
	C176.333755,1622.394531 146.358383,1607.708008 122.650459,1581.937500 
	C78.334702,1533.766235 79.764809,1462.695557 126.014603,1415.015625 
M220.055939,1473.500000 
	C220.055939,1459.428101 220.055939,1445.356323 220.055939,1431.117310 
	C196.611450,1437.066772 166.055908,1462.129761 167.559601,1503.414917 
	C168.826935,1538.210327 196.517822,1563.162476 220.055939,1568.512939 
	C220.055939,1537.118652 220.055939,1505.809326 220.055939,1473.500000 
M310.390076,1441.088379 
	C304.903503,1437.957397 299.416901,1434.826416 293.200562,1431.278931 
	C293.200562,1477.716064 293.200562,1522.552002 293.200562,1567.465698 
	C309.923706,1563.693481 329.811096,1545.116699 336.915710,1526.880005 
	C349.175751,1495.409790 339.335876,1463.049072 310.390076,1441.088379 
z"/>
<path fill="#FFFEFD" opacity="1.000000" stroke="none" 
	d="
M461.038361,1570.962891 
	C431.640442,1511.522217 442.495850,1438.906372 488.317505,1391.651733 
	C517.278259,1361.785156 553.503357,1346.745605 594.555115,1342.996338 
	C630.051147,1339.754517 664.168579,1345.078003 695.488037,1362.702148 
	C745.425842,1390.803223 770.448792,1434.478271 772.902161,1491.206055 
	C774.524353,1528.715332 764.676758,1563.187744 742.039673,1593.417847 
	C715.890625,1628.337769 680.509644,1648.428467 637.780823,1655.319092 
	C590.082336,1663.011108 545.941040,1653.707275 506.577789,1624.990356 
	C487.158203,1610.822998 472.092163,1592.773560 461.038361,1570.962891 
M650.523315,1416.919434 
	C617.787415,1397.686768 564.706604,1403.975708 538.844666,1443.480835 
	C523.578613,1466.800171 519.428772,1492.651123 524.278137,1519.668579 
	C536.886780,1589.915405 606.956543,1608.038086 652.536316,1581.798584 
	C677.503845,1567.425293 690.882446,1544.540771 694.420349,1516.489014 
	C699.631714,1475.168457 687.371643,1440.834961 650.523315,1416.919434 
z"/>
<path fill="#FEFEFD" opacity="1.000000" stroke="none" 
	d="
M967.195312,1652.183838 
	C965.478943,1651.697510 963.264893,1651.334229 963.185791,1650.703125 
	C962.983032,1649.086548 963.182434,1646.408203 964.190002,1645.823364 
	C968.963623,1643.051636 967.830078,1639.247070 965.941956,1635.907104 
	C961.855652,1628.678589 957.743103,1621.369141 952.753723,1614.763062 
	C928.576904,1582.752197 904.109070,1550.960938 879.723938,1519.107544 
	C879.171936,1518.386475 878.378540,1517.850098 877.196960,1516.769775 
	C876.904053,1518.120728 876.599854,1518.852173 876.608582,1519.579834 
	C876.996216,1551.894165 877.271973,1584.211060 877.950195,1616.519531 
	C878.074280,1622.427002 879.547546,1628.373535 880.954163,1634.166992 
	C882.239014,1639.458740 885.568542,1643.519653 891.066833,1644.901489 
	C895.010132,1645.892456 895.674377,1648.054077 894.442322,1651.830688 
	C858.328796,1651.830688 822.102478,1651.830688 785.692322,1651.830688 
	C784.642273,1648.105469 784.861206,1645.559448 789.407349,1644.424927 
	C795.878601,1642.810059 799.026794,1637.532471 799.738342,1631.568359 
	C801.371826,1617.876221 803.164978,1604.100098 803.268005,1590.345947 
	C803.713379,1530.864746 803.717834,1471.378784 803.535767,1411.895630 
	C803.495605,1398.771484 802.410278,1385.614624 801.105713,1372.542847 
	C800.264648,1364.115479 798.044006,1355.971924 787.952576,1353.393066 
	C787.062683,1353.165527 786.267212,1350.352051 786.464600,1348.878540 
	C786.592468,1347.923950 788.599548,1346.530273 789.776611,1346.518433 
	C797.768860,1346.437378 805.764648,1346.799316 813.758728,1346.779785 
	C837.083557,1346.722778 860.408142,1346.552368 883.732788,1346.431152 
	C886.677124,1346.415894 889.621582,1346.428955 892.773071,1346.428955 
	C892.773071,1348.944580 892.773071,1350.728516 892.773071,1352.850830 
	C884.227112,1354.126465 880.607239,1360.060547 879.618286,1367.697510 
	C878.402039,1377.089600 877.273499,1386.553223 877.081299,1396.005737 
	C876.607056,1419.325684 876.683411,1442.656860 876.566589,1465.983643 
	C876.561157,1467.068237 876.828308,1468.154175 877.160767,1470.728271 
	C881.110596,1465.842651 884.293091,1461.948608 887.430481,1458.018677 
	C907.060791,1433.429199 926.820679,1408.940796 946.205505,1384.159180 
	C950.990417,1378.042236 954.876465,1371.140625 958.560120,1364.269653 
	C961.501160,1358.783447 960.443665,1357.020508 955.745728,1353.017578 
	C954.425903,1351.893066 954.430908,1349.213501 953.671875,1346.737061 
	C991.684814,1346.737061 1028.572754,1346.737061 1065.342285,1346.737061 
	C1066.924072,1350.708618 1065.554688,1352.142700 1062.130127,1354.177734 
	C1055.786743,1357.947510 1049.441406,1362.350708 1044.528564,1367.784424 
	C1018.518738,1396.552002 992.945251,1425.714355 967.241089,1454.758057 
	C958.524963,1464.606689 949.906982,1474.542358 941.155518,1484.359375 
	C939.275818,1486.467896 938.428223,1487.946167 940.682617,1490.626099 
	C979.050232,1536.235962 1017.217163,1582.014771 1055.669312,1627.552979 
	C1061.976318,1635.022339 1069.076050,1641.893921 1078.807373,1645.309814 
	C1080.215088,1645.803955 1080.638916,1649.101440 1081.994263,1652.185059 
	C1042.873657,1652.185059 1005.271790,1652.185059 967.195312,1652.183838 
z"/>
<path fill="#FEFEFC" opacity="1.000000" stroke="none" 
	d="
M766.086914,1856.060791 
	C772.964905,1854.450684 776.014954,1856.466431 775.875488,1862.862305 
	C774.746277,1914.662354 756.840332,1957.679688 711.282227,1986.335938 
	C707.196411,1988.906006 703.363831,1992.568848 700.725098,1996.585815 
	C696.868225,2002.457031 700.024170,2007.167236 707.136108,2006.634399 
	C711.225342,2006.328125 715.665527,2005.737305 719.187744,2003.853516 
	C726.757629,1999.805176 734.962646,1995.972046 740.924377,1990.053101 
	C770.518433,1960.671997 804.675354,1953.311157 843.665466,1966.943604 
	C852.136536,1969.905273 860.418396,1973.453613 868.642334,1977.062256 
	C874.885925,1979.801636 875.553223,1984.482910 870.506836,1989.122559 
	C838.654602,2018.408813 802.087402,2035.108643 757.783264,2032.618774 
	C738.468750,2031.533325 718.882690,2032.210815 700.569580,2039.213013 
	C689.958557,2043.270264 679.998535,2049.346436 670.287964,2055.386230 
	C633.173889,2078.470459 592.830688,2093.770996 551.109253,2105.936279 
	C507.440918,2118.669678 463.255066,2129.279541 418.599762,2137.845459 
	C409.370819,2139.615967 399.675720,2140.236572 390.298279,2139.674072 
	C373.153320,2138.645264 372.077545,2126.798828 374.783203,2113.767334 
	C375.417816,2110.710693 380.836365,2107.591797 384.640045,2106.444336 
	C396.734344,2102.795654 409.004822,2099.568359 421.386108,2097.062256 
	C476.736847,2085.857422 531.935913,2074.062988 585.505981,2055.842285 
	C608.224426,2048.114990 630.793762,2039.877686 649.904053,2024.642822 
	C664.289978,2013.174194 676.906677,2000.073608 683.148071,1982.412109 
	C685.692993,1975.210571 687.142578,1967.128784 686.888184,1959.521118 
	C686.028076,1933.799561 692.151123,1910.548828 709.222168,1890.961060 
	C720.823792,1877.649048 736.093018,1869.303711 751.896790,1861.978516 
	C756.425903,1859.879028 761.109558,1858.113037 766.086914,1856.060791 
z"/>
<path fill="#FFFEFE" opacity="1.000000" stroke="none" 
	d="
M481.853729,1184.837402 
	C465.775940,1185.885742 467.923645,1185.845093 465.938873,1171.978882 
	C465.891663,1171.649048 465.855499,1171.317383 465.800903,1170.988770 
	C464.018738,1160.264282 462.602570,1159.161377 451.751770,1159.755493 
	C446.101074,1160.064819 440.428497,1160.626831 434.792847,1160.400635 
	C427.033203,1160.088989 424.036743,1156.492920 425.709473,1148.965332 
	C428.161163,1137.932251 431.454254,1127.089233 434.138794,1116.104004 
	C436.142426,1107.905029 438.194946,1098.698242 432.282104,1092.031982 
	C416.084351,1073.770264 416.562408,1051.435181 415.021790,1029.437866 
	C414.861908,1027.155029 415.000305,1024.851440 415.000305,1021.773804 
	C417.663849,1022.537964 419.682587,1023.100891 421.691864,1023.695862 
	C443.624603,1030.191162 465.751770,1035.470947 488.845337,1035.432861 
	C511.652710,1035.395264 532.650024,1029.973755 550.946533,1015.718506 
	C555.131958,1012.457581 559.623596,1009.523926 564.232422,1006.891663 
	C568.388855,1004.517700 570.867615,1005.799316 571.760010,1010.482117 
	C572.349426,1013.575073 572.522888,1016.762451 572.693054,1019.917786 
	C573.778503,1040.037842 578.048218,1059.521484 585.351196,1078.225708 
	C587.591431,1083.963379 591.742126,1089.008545 595.345337,1094.141113 
	C597.627747,1097.392334 600.641785,1100.118896 603.108276,1103.253540 
	C611.501770,1113.919922 613.358826,1125.900391 607.525696,1137.975830 
	C593.677185,1166.644165 578.438721,1194.550171 557.283997,1218.701782 
	C549.813354,1227.230835 541.036194,1233.876953 529.899841,1237.088135 
	C518.558411,1240.358276 513.742554,1238.642212 507.958435,1228.462891 
	C504.260040,1221.954224 500.760498,1215.331909 497.217346,1208.735962 
	C494.945648,1204.507080 491.608673,1201.824097 486.789032,1201.046509 
	C485.657867,1200.863892 484.550354,1200.410400 483.486755,1199.953857 
	C477.145477,1197.231323 476.266907,1193.906250 480.426666,1188.399292 
	C481.025726,1187.606079 481.754761,1186.911255 482.615784,1185.681396 
	C482.489838,1185.073608 482.171783,1184.955566 481.853729,1184.837402 
z"/>
<path fill="#FEFEFC" opacity="1.000000" stroke="none" 
	d="
M477.584412,1979.105591 
	C478.888733,1987.698608 483.375336,1994.174072 489.276520,1999.411865 
	C500.720886,2009.569580 512.603638,2019.232910 524.281860,2029.128052 
	C525.799622,2030.414062 527.440186,2031.675415 528.577576,2033.267212 
	C531.778748,2037.747314 530.425110,2043.290039 525.152161,2044.437866 
	C514.301453,2046.799927 503.301575,2048.718994 492.263580,2049.844482 
	C488.479492,2050.230225 483.956512,2048.438721 480.529022,2046.379883 
	C465.187378,2037.164673 448.301422,2033.911133 430.858612,2033.083374 
	C417.229065,2032.436523 403.551819,2032.870850 389.906830,2032.458374 
	C359.614532,2031.542969 333.442688,2019.543091 309.567505,2001.794189 
	C303.971863,1997.634277 298.679810,1993.011719 293.602814,1988.225708 
	C289.622803,1984.473755 290.271088,1979.970215 295.141510,1977.626831 
	C314.007294,1968.549683 333.517944,1961.124756 354.672302,1960.287842 
	C381.187439,1959.238770 403.109589,1970.090332 421.813110,1988.261475 
	C430.809479,1997.001709 441.008148,2003.709351 453.510559,2006.208374 
	C457.730591,2007.051880 462.694397,2008.154785 465.115204,2003.369019 
	C467.432678,1998.787354 464.053192,1995.105713 461.084015,1991.936646 
	C459.288330,1990.019775 457.107269,1988.364624 454.857056,1986.987915 
	C415.073883,1962.648438 394.970306,1926.318115 390.084808,1880.741455 
	C389.446777,1874.789551 389.135315,1868.784912 389.031158,1862.798462 
	C388.923065,1856.588257 392.732941,1853.818359 398.516846,1855.985962 
	C416.538818,1862.739868 433.927612,1870.904053 448.390625,1883.828491 
	C471.297150,1904.298462 479.480652,1930.676880 477.722626,1960.744995 
	C477.374023,1966.707153 477.568756,1972.701172 477.584412,1979.105591 
z"/>
<path fill="#FEFEFD" opacity="1.000000" stroke="none" 
	d="
M708.165161,1219.161865 
	C691.665344,1236.172485 674.781128,1252.192017 655.597412,1265.652466 
	C651.910217,1268.239502 649.736450,1268.275269 646.611084,1264.678101 
	C633.288391,1249.343750 619.707642,1234.230835 606.050049,1219.192505 
	C603.469849,1216.351440 603.261658,1214.352661 605.430847,1211.076172 
	C619.337036,1190.070435 631.236938,1167.943115 641.599304,1144.984619 
	C642.206909,1143.638428 642.962219,1142.358765 643.926025,1140.518921 
	C675.168457,1156.050415 708.334778,1165.628052 742.633606,1174.123047 
	C733.111145,1191.142334 721.090210,1205.270752 708.165161,1219.161865 
z"/>
<path fill="#FEFEFD" opacity="1.000000" stroke="none" 
	d="
M268.957825,918.955811 
	C276.739899,913.225220 284.132721,907.548340 291.818451,902.300537 
	C297.026154,898.744751 302.133575,900.617737 303.310638,906.566956 
	C307.567688,928.083374 310.176575,949.858154 305.620636,971.540588 
	C298.814178,1003.933594 278.832489,1026.265747 249.601349,1040.720337 
	C244.409943,1043.287354 238.835403,1045.152832 233.309265,1046.946167 
	C229.059860,1048.325073 225.331848,1046.875122 224.309662,1042.329102 
	C217.892212,1013.788452 217.250519,985.803894 233.508408,959.779480 
	C243.105484,944.417236 254.999435,931.017395 268.957825,918.955811 
z"/>
<path fill="#FEFEFC" opacity="1.000000" stroke="none" 
	d="
M857.240417,944.115662 
	C858.577942,931.725952 859.724915,919.794250 861.292664,907.918091 
	C862.155762,901.380249 867.242859,898.581482 872.401245,901.845825 
	C900.056763,919.347046 923.246704,941.310181 937.382874,971.275818 
	C946.671387,990.965759 946.138916,1012.023010 942.656799,1033.075806 
	C942.548340,1033.731445 942.360107,1034.373657 942.241455,1035.027954 
	C939.840820,1048.263672 937.911621,1049.454468 925.387390,1044.998657 
	C890.123108,1032.452515 854.513367,998.669067 857.240417,944.115662 
z"/>
<path fill="#FEFEFC" opacity="1.000000" stroke="none" 
	d="
M870.525146,1732.985962 
	C872.275818,1734.828979 874.579163,1736.433228 874.844421,1738.323364 
	C878.828186,1766.711060 876.448792,1794.544800 865.543640,1821.181885 
	C857.351074,1841.193237 841.275330,1854.095337 823.275024,1864.880127 
	C821.278381,1866.076416 819.211548,1867.162598 817.136292,1868.219482 
	C811.041687,1871.322998 808.031311,1870.282959 805.440979,1863.962036 
	C791.241882,1829.312622 796.510071,1784.388184 830.282593,1757.429443 
	C840.768982,1749.058594 852.335632,1742.026245 863.556030,1734.605347 
	C865.345154,1733.422241 867.918884,1733.425415 870.525146,1732.985962 
z"/>
<path fill="#FEFEFC" opacity="1.000000" stroke="none" 
	d="
M186.956665,1810.032227 
	C168.893356,1795.025146 154.900208,1777.208252 144.377380,1756.660034 
	C141.617523,1751.270874 143.525146,1747.234741 149.505798,1746.537476 
	C171.162857,1744.012695 192.898636,1743.426147 213.745209,1750.836304 
	C239.887772,1760.128662 257.274719,1778.926147 267.760803,1804.279541 
	C269.911896,1809.480469 271.461945,1814.979858 272.772003,1820.464966 
	C274.105621,1826.048828 272.192108,1828.872437 266.567688,1829.610840 
	C237.650513,1833.406372 210.325439,1830.430664 186.956665,1810.032227 
z"/>
<path fill="#FEFEFC" opacity="1.000000" stroke="none" 
	d="
M1016.899536,1746.739014 
	C1022.201538,1749.849609 1023.003906,1752.015381 1020.393433,1757.036743 
	C1007.583801,1781.676514 990.338501,1802.603882 967.127991,1818.042847 
	C948.340149,1830.540161 926.989258,1832.363647 905.193054,1830.467407 
	C890.878723,1829.222046 889.805664,1827.342163 893.900391,1813.557495 
	C904.055786,1779.369873 932.378967,1746.412964 982.127136,1745.302612 
	C993.572754,1745.047119 1005.048645,1746.149414 1016.899536,1746.739014 
z"/>
<path fill="#FEFEFC" opacity="1.000000" stroke="none" 
	d="
M288.319031,1756.296143 
	C288.893372,1750.024536 289.253845,1744.195801 290.058258,1738.428955 
	C290.713287,1733.733276 294.799225,1731.154419 298.820374,1733.321167 
	C320.682831,1745.101807 341.735413,1758.275635 354.516205,1780.453003 
	C370.097595,1807.489868 370.557007,1835.903931 359.197815,1864.681396 
	C357.270294,1869.564453 353.911255,1871.201904 349.785675,1869.138672 
	C330.235016,1859.361206 312.990356,1846.695679 302.260681,1827.138184 
	C293.458374,1811.093750 290.425781,1793.275757 288.900604,1775.237793 
	C288.382233,1769.107300 288.480560,1762.924683 288.319031,1756.296143 
z"/>
<path fill="#FEFEFC" opacity="1.000000" stroke="none" 
	d="
M248.066132,1858.990479 
	C291.439270,1856.032227 325.312164,1885.541260 338.289001,1918.059692 
	C341.481934,1926.061035 340.558075,1928.680542 332.449158,1930.894409 
	C309.328491,1937.206665 286.057312,1939.483276 263.644287,1928.798096 
	C238.683502,1916.898438 218.587936,1898.894531 202.448410,1876.500977 
	C198.811264,1871.454712 200.582916,1866.815308 207.260574,1865.535767 
	C220.626114,1862.974854 234.129761,1861.134888 248.066132,1858.990479 
z"/>
<path fill="#FEFEFC" opacity="1.000000" stroke="none" 
	d="
M862.055786,1874.028198 
	C886.073425,1857.199829 912.378784,1856.586426 939.515747,1861.499634 
	C946.053772,1862.683472 952.556091,1864.177734 958.962952,1865.936768 
	C964.210266,1867.377441 965.951416,1871.576294 962.765259,1875.902832 
	C943.748535,1901.724854 920.952698,1923.090332 889.652710,1932.898438 
	C869.580078,1939.188477 849.409851,1935.940308 829.679077,1929.970581 
	C825.087280,1928.581299 823.962158,1925.345093 825.848389,1920.396118 
	C833.106812,1901.351196 844.976501,1885.874512 862.055786,1874.028198 
z"/>
<path fill="#FEFEFC" opacity="1.000000" stroke="none" 
	d="
M73.586372,1090.520020 
	C73.954323,1087.427002 74.066063,1084.732910 74.680992,1082.159302 
	C75.642258,1078.135986 79.095215,1075.932739 82.600906,1077.748535 
	C124.060692,1099.223022 150.956558,1124.797363 149.201523,1172.662476 
	C148.801834,1183.562866 144.959824,1194.408813 142.085373,1205.114136 
	C140.785233,1209.956421 137.366196,1211.282837 133.116928,1209.155273 
	C112.154396,1198.660034 93.610260,1185.193359 84.050003,1162.898071 
	C74.226845,1139.989624 71.665428,1115.736206 73.586372,1090.520020 
z"/>
<path fill="#FEFEFC" opacity="1.000000" stroke="none" 
	d="
M828.484924,1088.470459 
	C827.268250,1085.901978 825.135498,1083.436768 825.514099,1081.450317 
	C825.944763,1079.190674 828.363770,1075.908447 830.355835,1075.558228 
	C860.277710,1070.298462 889.998596,1070.738159 918.005005,1083.736206 
	C937.427490,1092.750366 950.045410,1109.362305 960.219727,1127.741577 
	C962.536316,1131.926147 959.928528,1134.850220 956.271301,1136.546021 
	C941.190613,1143.539062 925.371582,1146.766113 908.698425,1145.653442 
	C880.039734,1143.740845 858.534180,1129.431885 841.679871,1107.095825 
	C837.172668,1101.122925 833.002747,1094.895630 828.484924,1088.470459 
z"/>
<path fill="#FEFEFC" opacity="1.000000" stroke="none" 
	d="
M1017.350098,1187.585205 
	C1012.485168,1161.570068 1016.491089,1137.591919 1032.076782,1116.485962 
	C1044.800781,1099.255493 1062.636475,1088.005615 1081.306274,1078.151855 
	C1085.622803,1075.873657 1089.862915,1077.840820 1090.366577,1082.525635 
	C1093.886353,1115.261841 1092.047974,1147.251343 1073.408569,1175.804443 
	C1063.428711,1191.092285 1048.324097,1200.835815 1032.306396,1209.020752 
	C1028.078979,1211.181152 1024.701416,1209.980347 1023.028259,1205.564697 
	C1020.854553,1199.828247 1019.276428,1193.865845 1017.350098,1187.585205 
z"/>
<path fill="#FEFEFC" opacity="1.000000" stroke="none" 
	d="
M232.532532,1184.493164 
	C245.338333,1182.175903 257.730103,1179.715576 270.221802,1177.970947 
	C276.204498,1177.135254 279.112549,1181.006470 277.343292,1186.613281 
	C271.858795,1203.993286 265.101501,1220.877441 253.757629,1235.335938 
	C234.217087,1260.241821 207.815704,1269.948120 176.828598,1268.561035 
	C172.202728,1268.353882 167.563141,1267.503296 163.026398,1266.509766 
	C158.003983,1265.409790 156.488861,1262.674194 157.886887,1257.646362 
	C166.792053,1225.619629 184.760025,1201.469604 217.080475,1189.888550 
	C222.090042,1188.093628 227.132370,1186.389893 232.532532,1184.493164 
z"/>
<path fill="#FEFEFC" opacity="1.000000" stroke="none" 
	d="
M207.557343,1122.584595 
	C218.868927,1104.664429 232.173569,1089.166992 252.033066,1081.287964 
	C270.035645,1074.145508 289.087158,1071.937866 308.383270,1072.687500 
	C316.669586,1073.009521 324.962982,1073.991333 333.170563,1075.223389 
	C339.498199,1076.173462 341.305786,1080.226196 338.072571,1085.622437 
	C328.447205,1101.687378 317.528992,1116.855957 302.513947,1128.294434 
	C277.860931,1147.075195 250.315399,1149.898804 221.138962,1141.354492 
	C217.482605,1140.283936 213.940826,1138.772949 210.426498,1137.276855 
	C203.306427,1134.245483 202.465408,1131.724487 206.138947,1125.073608 
	C206.541214,1124.345337 206.949890,1123.620483 207.557343,1122.584595 
z"/>
<path fill="#FEFEFC" opacity="1.000000" stroke="none" 
	d="
M969.268188,1200.742920 
	C990.219360,1214.867554 1000.718506,1235.453613 1007.192322,1258.596313 
	C1008.494324,1263.250854 1006.473022,1265.809692 1001.064453,1266.879395 
	C984.574524,1270.140991 968.311096,1269.323364 952.242188,1264.156982 
	C925.445801,1255.541382 908.346680,1236.775024 897.268738,1211.780640 
	C893.836121,1204.035889 890.880005,1196.062012 888.067139,1188.065918 
	C885.500977,1180.771240 888.098206,1177.438477 895.722229,1177.938354 
	C921.921082,1179.655884 946.429382,1186.922852 969.268188,1200.742920 
z"/>
<path fill="#FEFEFC" opacity="1.000000" stroke="none" 
	d="
M159.324326,1087.688110 
	C144.293777,1073.448853 131.926056,1057.702148 128.434967,1037.147827 
	C123.755943,1009.599365 127.833847,982.736633 137.645386,956.711487 
	C139.619339,951.475586 144.007187,949.960083 147.825256,953.359558 
	C164.478180,968.186829 180.231613,984.078613 187.877060,1005.513306 
	C198.747406,1035.989380 193.119614,1064.529297 174.668030,1090.723755 
	C171.483109,1095.245361 168.577194,1095.351807 164.101807,1091.855591 
	C162.531189,1090.628540 161.077972,1089.251221 159.324326,1087.688110 
z"/>
<path fill="#FEFEFC" opacity="1.000000" stroke="none" 
	d="
M1037.146240,1034.096924 
	C1032.811523,1059.035400 1018.263367,1077.013916 999.981628,1092.533569 
	C996.405396,1095.569458 993.038086,1094.698853 989.898193,1090.287842 
	C978.811218,1074.712646 972.690369,1057.442261 971.852478,1038.238525 
	C970.814941,1014.461060 979.323914,994.235535 994.549194,976.603760 
	C1001.276062,968.813660 1008.663452,961.572998 1016.011230,954.347473 
	C1020.679504,949.756897 1025.049316,950.901123 1027.425903,957.172302 
	C1036.787476,981.875793 1040.236328,1007.361389 1037.146240,1034.096924 
z"/>
<path fill="#FEFDFC" opacity="1.000000" stroke="none" 
	d="
M695.978699,2087.842041 
	C709.022583,2090.244385 721.638245,2092.487305 734.179932,2095.087158 
	C746.565186,2097.655029 758.883667,2100.549316 771.212402,2103.383301 
	C773.800415,2103.978271 776.340332,2104.837891 778.842957,2105.739990 
	C791.009766,2110.126709 794.262207,2116.544678 790.552185,2128.947998 
	C788.802063,2134.799072 784.606873,2138.827148 778.755005,2138.980713 
	C768.018372,2139.262451 756.970581,2139.806641 746.550903,2137.734863 
	C717.015747,2131.861328 687.734558,2124.712402 658.346924,2118.094238 
	C654.669800,2117.265869 651.570618,2115.730713 651.237122,2111.554688 
	C650.925964,2107.658447 653.543396,2105.715088 656.769409,2104.114990 
	C664.968323,2100.048096 672.916626,2095.444580 681.257446,2091.707764 
	C685.697632,2089.718750 690.744812,2089.084717 695.978699,2087.842041 
z"/>
<path fill="#DB8B30" opacity="1.000000" stroke="none" 
	d="
M220.055939,1474.000000 
	C220.055939,1505.809326 220.055939,1537.118652 220.055939,1568.512939 
	C196.517822,1563.162476 168.826935,1538.210327 167.559601,1503.414917 
	C166.055908,1462.129761 196.611450,1437.066772 220.055939,1431.117310 
	C220.055939,1445.356323 220.055939,1459.428101 220.055939,1474.000000 
z"/>
<path fill="#DB8B30" opacity="1.000000" stroke="none" 
	d="
M310.675598,1441.305542 
	C339.335876,1463.049072 349.175751,1495.409790 336.915710,1526.880005 
	C329.811096,1545.116699 309.923706,1563.693481 293.200562,1567.465698 
	C293.200562,1522.552002 293.200562,1477.716064 293.200562,1431.278931 
	C299.416901,1434.826416 304.903503,1437.957397 310.675598,1441.305542 
z"/>
<path fill="#DB8B30" opacity="1.000000" stroke="none" 
	d="
M650.854126,1417.080566 
	C687.371643,1440.834961 699.631714,1475.168457 694.420349,1516.489014 
	C690.882446,1544.540771 677.503845,1567.425293 652.536316,1581.798584 
	C606.956543,1608.038086 536.886780,1589.915405 524.278137,1519.668579 
	C519.428772,1492.651123 523.578613,1466.800171 538.844666,1443.480835 
	C564.706604,1403.975708 617.787415,1397.686768 650.854126,1417.080566 
M580.545105,1539.885254 
	C600.689026,1535.596680 620.851685,1535.651123 640.968872,1539.923096 
	C646.554565,1541.109253 651.360474,1543.870972 652.946777,1549.906006 
	C653.765198,1553.019653 655.687805,1554.385010 658.276123,1553.250854 
	C659.557983,1552.689209 660.593018,1550.025757 660.594238,1548.312378 
	C660.610596,1526.005981 660.354065,1503.699585 660.313477,1481.392944 
	C660.294373,1470.907471 660.665710,1460.421509 660.647522,1449.936035 
	C660.645325,1448.681152 659.028320,1446.278320 658.631653,1446.373291 
	C656.858887,1446.798828 654.263245,1447.562744 653.766357,1448.882812 
	C651.662598,1454.471313 647.636292,1457.678223 642.181641,1458.872803 
	C620.925964,1463.528198 599.622742,1463.727539 578.400757,1458.602417 
	C573.631287,1457.450684 569.783081,1454.594604 568.358826,1449.750000 
	C567.068665,1445.361694 564.511414,1445.686401 561.238281,1446.602417 
	C561.238281,1482.272339 561.238281,1517.643188 561.238281,1553.269653 
	C564.206848,1553.382324 567.205139,1554.917236 568.273987,1550.655640 
	C569.782532,1544.640869 574.138123,1541.649902 580.545105,1539.885254 
z"/>
<path fill="#DB8A2E" opacity="1.000000" stroke="none" 
	d="
M482.052124,1185.008667 
	C482.171783,1184.955566 482.489838,1185.073608 482.733826,1185.349609 
	C482.523376,1185.398193 482.386963,1185.289062 482.052124,1185.008667 
z"/>
<path fill="#FEFEFD" opacity="1.000000" stroke="none" 
	d="
M580.158997,1539.985596 
	C574.138123,1541.649902 569.782532,1544.640869 568.273987,1550.655640 
	C567.205139,1554.917236 564.206848,1553.382324 561.238281,1553.269653 
	C561.238281,1517.643188 561.238281,1482.272339 561.238281,1446.602417 
	C564.511414,1445.686401 567.068665,1445.361694 568.358826,1449.750000 
	C569.783081,1454.594604 573.631287,1457.450684 578.400757,1458.602417 
	C599.622742,1463.727539 620.925964,1463.528198 642.181641,1458.872803 
	C647.636292,1457.678223 651.662598,1454.471313 653.766357,1448.882812 
	C654.263245,1447.562744 656.858887,1446.798828 658.631653,1446.373291 
	C659.028320,1446.278320 660.645325,1448.681152 660.647522,1449.936035 
	C660.665710,1460.421509 660.294373,1470.907471 660.313477,1481.392944 
	C660.354065,1503.699585 660.610596,1526.005981 660.594238,1548.312378 
	C660.593018,1550.025757 659.557983,1552.689209 658.276123,1553.250854 
	C655.687805,1554.385010 653.765198,1553.019653 652.946777,1549.906006 
	C651.360474,1543.870972 646.554565,1541.109253 640.968872,1539.923096 
	C620.851685,1535.651123 600.689026,1535.596680 580.158997,1539.985596 
z"/>
</svg>