<?xml version="1.0" standalone="no"?>
<!DOCTYPE svg PUBLIC "-//W3C//DTD SVG 20010904//EN"
 "http://www.w3.org/TR/2001/REC-SVG-20010904/DTD/svg10.dtd">
<svg version="1.0" xmlns="http://www.w3.org/2000/svg"
 width="2000.000000pt" height="766.000000pt" viewBox="0 0 2000.000000 766.000000"
 preserveAspectRatio="xMidYMid meet">

<g transform="translate(0.000000,766.000000) scale(0.100000,-0.100000)"
fill="#000000" stroke="none">
<path d="M10176 6709 c-440 -28 -863 -139 -1241 -325 -1056 -519 -1654 -1554
-1594 -2762 62 -1245 925 -2281 2174 -2607 287 -75 489 -99 830 -99 297 0 420
12 675 64 1155 236 2030 1083 2279 2205 52 235 65 365 65 670 1 369 -23 556
-110 857 -102 357 -289 711 -521 988 -392 467 -958 801 -1590 939 -315 68
-630 91 -967 70z m484 -1204 c194 -38 386 -117 552 -227 135 -89 334 -291 426
-432 276 -420 371 -929 267 -1442 -134 -665 -606 -1152 -1230 -1269 -263 -50
-568 -32 -815 47 -549 175 -945 647 -1061 1263 -27 140 -37 438 -20 586 94
825 628 1391 1408 1489 101 13 374 4 473 -15z"/>
<path d="M9470 3820 l0 -990 63 0 62 0 18 61 c51 175 258 239 774 239 382 0
615 -42 707 -128 32 -31 76 -116 76 -149 0 -22 4 -23 68 -23 l67 0 -1 988 -2
987 -59 3 -59 3 -13 -50 c-17 -68 -83 -141 -153 -171 -133 -57 -391 -85 -717
-77 -475 12 -658 78 -703 254 l-10 43 -59 0 -59 0 0 -990z"/>
<path d="M2880 6573 l0 -62 53 -15 c94 -27 146 -79 184 -183 29 -79 29 -91 1
-97 -123 -26 -337 -82 -429 -112 -767 -247 -1357 -731 -1654 -1357 -201 -425
-262 -923 -170 -1384 134 -662 595 -1249 1272 -1617 238 -129 570 -253 848
-316 77 -17 141 -33 143 -35 1 -1 -6 -27 -18 -57 -37 -101 -95 -157 -187 -184
l-53 -15 0 -62 0 -62 1010 0 1011 0 -3 59 -3 59 -46 13 c-82 24 -140 71 -176
144 -18 36 -36 79 -39 96 l-6 31 132 32 c644 157 1231 511 1593 961 214 266
383 606 456 917 86 371 77 793 -25 1151 -246 862 -1013 1506 -2054 1727 l-105
22 1 30 c1 17 14 58 29 92 35 78 97 134 166 152 l49 13 0 60 0 61 -990 0 -990
0 0 -62z m320 -2757 l0 -1274 -52 20 c-480 182 -811 570 -890 1042 -18 106
-15 334 6 441 56 285 174 503 380 703 110 106 207 177 331 241 61 32 198 93
223 100 1 1 2 -572 2 -1273z m1451 1203 c374 -181 657 -517 755 -897 136 -533
-82 -1084 -556 -1403 -81 -54 -267 -149 -294 -149 -15 0 -16 106 -16 1245 0
1016 2 1245 13 1245 7 0 51 -18 98 -41z"/>
<path d="M13610 6573 l0 -62 55 -16 c98 -28 166 -110 200 -242 26 -100 44
-271 55 -534 15 -344 8 -3791 -8 -3969 -39 -427 -99 -558 -273 -600 l-49 -12
0 -61 0 -62 1010 0 1011 0 -3 59 -3 60 -45 11 c-65 17 -102 39 -140 81 -91
104 -123 284 -140 780 -12 374 -13 1504 -1 1504 10 0 924 -1183 1241 -1606
290 -385 420 -598 420 -684 0 -39 -28 -75 -65 -82 -17 -3 -20 -12 -23 -63 l-3
-60 1091 0 1090 0 0 62 0 62 -52 15 c-91 27 -176 85 -311 216 -213 206 -267
268 -1480 1733 l-777 937 534 608 c1303 1482 1366 1552 1503 1683 105 98 185
153 253 170 l50 13 0 60 0 61 -1025 0 -1025 0 0 -62 c0 -56 2 -63 20 -63 11 0
34 -13 51 -28 24 -21 31 -36 31 -64 0 -142 -192 -427 -702 -1043 -64 -77 -272
-337 -464 -578 -191 -240 -352 -435 -357 -432 -12 8 -12 960 1 1332 20 592 71
761 242 804 l48 13 0 60 0 61 -980 0 -980 0 0 -62z"/>
</g>
</svg>
